<svg id="svg" version="1.1" xmlns="http://www.w3.org/2000/svg" xmlns:xlink="http://www.w3.org/1999/xlink" width="400" height="493.12424607961395" viewBox="0, 0, 400,493.12424607961395"><g id="svgg"><path id="path0" d="M193.400 109.039 C 192.520 109.127,189.796 109.380,187.347 109.602 C 177.082 110.533,166.056 113.326,151.800 118.606 C 148.435 119.852,136.877 125.527,134.149 127.273 C 133.077 127.959,131.480 128.974,130.600 129.528 C 128.420 130.902,124.419 133.588,123.200 134.496 C 118.515 137.986,116.486 139.647,113.623 142.336 C 112.418 143.468,114.438 141.985,118.400 138.828 C 120.769 136.940,123.225 135.207,124.369 134.616 C 125.046 134.266,125.600 133.804,125.600 133.590 C 125.600 133.375,125.844 133.200,126.142 133.200 C 126.439 133.200,127.123 132.795,127.660 132.300 C 128.197 131.805,129.573 130.964,130.718 130.432 C 131.863 129.899,132.800 129.331,132.800 129.170 C 132.800 129.009,133.790 128.466,135.000 127.965 C 136.210 127.463,137.200 126.944,137.200 126.811 C 137.200 126.678,138.190 126.133,139.400 125.600 C 140.610 125.067,141.600 124.489,141.600 124.316 C 141.600 124.142,141.847 124.000,142.149 124.000 C 142.786 124.000,146.504 122.416,146.800 122.018 C 146.910 121.871,147.990 121.444,149.201 121.069 C 150.411 120.694,151.941 120.102,152.601 119.752 C 153.260 119.403,155.056 118.763,156.591 118.332 C 158.126 117.900,159.577 117.385,159.815 117.187 C 160.053 116.990,161.857 116.453,163.824 115.995 C 165.791 115.537,168.120 114.920,169.000 114.623 C 169.880 114.327,172.040 113.857,173.800 113.578 C 175.560 113.300,177.090 112.945,177.200 112.790 C 178.770 110.573,224.053 110.563,225.600 112.780 C 225.710 112.937,227.780 113.387,230.200 113.778 C 232.620 114.170,234.690 114.612,234.800 114.762 C 234.910 114.911,236.440 115.361,238.200 115.762 C 239.960 116.163,242.210 116.822,243.200 117.228 C 244.190 117.633,246.080 118.268,247.400 118.639 C 248.720 119.010,250.160 119.533,250.600 119.800 C 251.040 120.067,252.435 120.598,253.700 120.980 C 254.965 121.362,256.000 121.823,256.000 122.005 C 256.000 122.186,257.170 122.724,258.600 123.200 C 260.030 123.676,261.200 124.189,261.200 124.340 C 261.200 124.490,262.280 125.043,263.600 125.567 C 264.920 126.091,266.000 126.651,266.000 126.811 C 266.000 126.971,266.945 127.506,268.100 128.001 C 269.255 128.496,270.290 129.026,270.400 129.180 C 270.510 129.334,271.410 129.896,272.400 130.430 C 273.390 130.963,274.322 131.569,274.471 131.776 C 274.619 131.983,275.265 132.433,275.905 132.776 C 277.811 133.798,281.395 136.271,281.966 136.959 C 282.259 137.312,282.740 137.600,283.035 137.600 C 283.330 137.600,283.765 137.960,284.000 138.400 C 284.235 138.840,284.647 139.202,284.914 139.204 C 285.181 139.206,286.300 140.011,287.400 140.993 C 288.500 141.975,289.509 142.783,289.642 142.789 C 289.775 142.795,290.717 143.610,291.736 144.600 C 293.785 146.592,294.813 146.835,295.678 145.533 C 296.314 144.575,295.911 144.051,292.297 141.125 C 291.396 140.396,289.991 139.260,289.175 138.600 C 283.994 134.409,279.682 131.449,272.600 127.218 C 269.501 125.367,257.574 119.456,256.000 118.991 C 255.450 118.829,254.280 118.373,253.400 117.978 C 239.298 111.652,210.371 107.342,193.400 109.039 M352.800 124.265 C 352.800 124.495,353.476 125.679,355.504 129.000 C 355.773 129.440,356.453 130.610,357.016 131.600 C 357.579 132.590,358.651 134.390,359.400 135.600 C 360.149 136.810,361.229 138.610,361.800 139.600 C 362.371 140.590,363.451 142.390,364.199 143.600 C 364.948 144.810,365.952 146.520,366.432 147.400 C 366.912 148.280,367.641 149.478,368.052 150.062 C 369.228 151.731,369.008 152.085,365.500 154.168 C 363.685 155.246,361.210 156.756,360.000 157.525 C 357.335 159.216,355.750 160.222,352.600 162.216 C 351.280 163.052,348.760 164.673,347.000 165.819 C 345.240 166.965,342.180 168.939,340.200 170.206 C 338.220 171.473,335.378 173.340,333.884 174.355 C 332.390 175.370,330.203 176.830,329.022 177.600 C 322.745 181.695,301.234 196.781,295.246 201.289 C 294.451 201.887,293.350 202.696,292.800 203.087 C 290.999 204.364,278.649 213.695,276.546 215.367 C 275.417 216.265,273.448 217.810,272.171 218.800 C 268.534 221.620,251.244 236.010,248.800 238.250 C 247.590 239.359,243.540 243.040,239.800 246.430 C 225.686 259.221,190.982 294.963,186.200 301.632 C 185.760 302.246,184.347 304.017,183.059 305.568 L 180.719 308.388 181.759 309.625 C 182.332 310.305,182.800 310.679,182.800 310.455 C 182.800 310.023,185.145 307.141,187.425 304.771 C 188.181 303.985,188.800 303.222,188.800 303.076 C 188.800 302.930,189.655 301.921,190.700 300.833 C 191.745 299.746,193.230 298.152,194.000 297.291 C 201.452 288.964,205.324 284.806,213.200 276.671 C 218.439 271.260,234.361 255.496,236.860 253.246 C 237.883 252.325,239.611 250.723,240.700 249.686 C 241.789 248.649,243.891 246.720,245.371 245.400 C 246.851 244.080,248.651 242.460,249.371 241.800 C 250.994 240.312,254.690 237.093,257.600 234.634 C 258.810 233.612,260.252 232.331,260.804 231.788 C 261.357 231.244,261.959 230.800,262.144 230.800 C 262.328 230.800,262.987 230.305,263.608 229.700 C 264.228 229.095,265.246 228.197,265.868 227.704 C 266.491 227.211,267.540 226.362,268.200 225.817 C 269.866 224.442,272.329 222.490,274.784 220.600 C 275.928 219.720,277.277 218.640,277.783 218.200 C 278.896 217.231,280.236 216.194,283.400 213.852 C 284.720 212.875,286.179 211.698,286.642 211.238 C 287.105 210.777,287.617 210.400,287.779 210.400 C 288.107 210.400,291.339 208.003,293.307 206.300 C 294.006 205.695,294.807 205.200,295.086 205.200 C 295.365 205.200,295.818 204.840,296.093 204.400 C 296.368 203.960,296.776 203.600,297.000 203.600 C 297.225 203.600,297.856 203.187,298.404 202.683 C 299.441 201.728,302.740 199.316,304.031 198.569 C 304.764 198.145,305.124 197.884,308.903 195.035 C 309.950 194.246,310.963 193.600,311.154 193.600 C 311.346 193.600,311.717 193.341,311.980 193.024 C 312.544 192.345,318.290 188.400,318.716 188.400 C 318.876 188.400,319.232 188.040,319.507 187.600 C 319.782 187.160,320.194 186.800,320.423 186.800 C 320.861 186.800,325.213 183.893,326.560 182.700 C 326.995 182.315,327.577 182.000,327.853 182.000 C 328.129 182.000,328.590 181.685,328.877 181.300 C 329.165 180.915,330.210 180.164,331.200 179.631 C 332.190 179.098,333.144 178.423,333.320 178.131 C 333.496 177.839,333.875 177.600,334.161 177.600 C 334.448 177.600,335.126 177.195,335.668 176.700 C 336.210 176.205,337.451 175.359,338.427 174.820 C 339.402 174.281,340.380 173.689,340.600 173.505 C 340.820 173.320,342.260 172.378,343.800 171.411 C 345.340 170.444,346.874 169.416,347.210 169.126 C 347.545 168.837,348.490 168.244,349.310 167.809 C 350.129 167.374,350.800 166.911,350.800 166.780 C 350.800 166.649,351.610 166.137,352.600 165.643 C 353.590 165.148,354.400 164.611,354.400 164.449 C 354.400 164.287,355.094 163.848,355.941 163.474 C 356.789 163.100,358.004 162.345,358.641 161.797 C 359.279 161.249,360.025 160.801,360.300 160.800 C 360.575 160.800,361.123 160.485,361.517 160.100 C 361.912 159.715,363.037 158.963,364.017 158.430 C 364.998 157.896,365.890 157.342,366.000 157.198 C 366.110 157.053,367.057 156.512,368.104 155.995 C 371.184 154.473,371.818 152.371,369.609 151.006 C 369.422 150.890,368.857 149.942,368.353 148.898 C 367.849 147.854,367.288 146.820,367.106 146.600 C 366.450 145.809,363.600 140.836,363.600 140.484 C 363.600 140.286,363.240 139.798,362.800 139.400 C 362.360 139.002,362.000 138.509,362.000 138.306 C 362.000 138.102,361.370 136.986,360.600 135.826 C 359.830 134.666,359.200 133.545,359.200 133.334 C 359.200 133.123,358.877 132.602,358.482 132.175 C 358.086 131.749,357.350 130.545,356.846 129.500 C 356.341 128.455,355.810 127.598,355.664 127.596 C 355.519 127.594,355.045 126.784,354.610 125.796 C 353.951 124.297,352.800 123.323,352.800 124.265 M109.032 146.313 L 108.264 147.400 109.332 146.430 C 110.454 145.411,110.593 145.192,110.100 145.213 C 109.935 145.219,109.454 145.714,109.032 146.313 M90.198 149.202 C 89.175 150.332,89.610 150.437,90.686 149.320 C 91.173 148.814,91.426 148.400,91.248 148.400 C 91.070 148.400,90.597 148.761,90.198 149.202 M87.533 152.495 C 87.026 153.207,86.338 154.081,86.005 154.437 C 85.672 154.793,85.004 155.606,84.519 156.242 C 84.035 156.879,82.910 158.340,82.019 159.488 C 81.129 160.637,80.400 161.734,80.400 161.926 C 80.400 162.119,80.085 162.563,79.700 162.913 C 79.315 163.263,78.640 164.228,78.200 165.056 C 77.760 165.885,76.995 167.002,76.500 167.540 C 76.005 168.077,75.600 168.738,75.600 169.009 C 75.600 169.280,75.333 169.724,75.006 169.995 C 74.680 170.266,74.005 171.323,73.506 172.344 C 73.008 173.365,72.414 174.399,72.187 174.641 C 71.960 174.884,71.425 175.874,70.998 176.841 C 70.571 177.809,70.107 178.690,69.966 178.800 C 69.566 179.113,66.000 186.648,66.000 187.181 C 66.000 187.443,65.749 187.909,65.441 188.216 C 65.134 188.523,64.560 189.815,64.166 191.087 C 63.772 192.359,63.327 193.490,63.176 193.600 C 63.026 193.710,62.477 195.150,61.957 196.800 C 61.437 198.450,60.889 199.891,60.739 200.003 C 60.589 200.115,60.089 201.735,59.629 203.603 C 59.168 205.471,58.634 207.279,58.442 207.620 C 58.250 207.961,57.696 210.211,57.211 212.620 C 56.725 215.029,56.170 217.304,55.976 217.675 C 55.571 218.452,54.000 230.116,54.000 232.348 C 54.000 233.168,53.780 234.060,53.510 234.330 C 52.803 235.037,52.803 261.268,53.510 261.503 C 53.791 261.597,54.001 262.377,54.003 263.333 C 54.006 264.797,54.583 269.942,55.447 276.200 C 55.599 277.300,55.840 278.290,55.984 278.400 C 56.127 278.510,56.646 280.664,57.138 283.186 C 57.629 285.708,58.160 287.868,58.319 287.986 C 58.477 288.104,58.940 289.550,59.348 291.200 C 59.755 292.850,60.340 294.744,60.647 295.408 C 60.953 296.072,61.560 297.860,61.994 299.380 C 62.429 300.900,62.924 302.246,63.094 302.372 C 63.265 302.497,63.644 303.320,63.936 304.200 C 64.837 306.910,68.728 315.090,71.452 320.000 C 72.245 321.430,73.237 323.275,73.656 324.100 C 74.076 324.925,74.549 325.603,74.709 325.606 C 74.869 325.610,75.440 326.510,75.979 327.606 C 76.517 328.703,77.080 329.600,77.230 329.600 C 77.380 329.600,77.730 330.147,78.007 330.816 C 78.284 331.485,78.800 332.250,79.155 332.516 C 79.510 332.782,80.145 333.630,80.567 334.400 C 80.989 335.170,81.754 336.230,82.267 336.755 C 82.780 337.280,83.200 337.838,83.200 337.995 C 83.200 338.153,83.744 338.893,84.409 339.641 C 85.074 340.388,85.969 341.450,86.398 342.000 C 89.578 346.078,101.320 358.400,102.026 358.400 C 102.174 358.400,103.083 359.168,104.047 360.107 C 105.542 361.563,108.049 363.653,111.400 366.238 C 111.840 366.577,113.190 367.559,114.400 368.420 C 115.610 369.281,117.047 370.303,117.593 370.692 C 118.140 371.082,119.940 372.248,121.593 373.284 C 123.247 374.320,124.801 375.340,125.046 375.549 C 125.292 375.759,126.372 376.330,127.446 376.817 C 128.521 377.304,129.492 377.846,129.605 378.020 C 129.922 378.514,140.034 383.482,141.920 384.070 C 142.844 384.359,143.600 384.724,143.600 384.881 C 143.600 385.039,144.801 385.539,146.269 385.992 C 147.737 386.446,149.132 386.973,149.369 387.165 C 149.606 387.357,151.240 387.913,153.000 388.400 C 154.760 388.887,156.393 389.443,156.630 389.634 C 156.866 389.825,158.756 390.368,160.830 390.840 C 162.903 391.312,164.780 391.839,165.000 392.010 C 165.220 392.181,167.830 392.733,170.800 393.238 C 173.770 393.742,176.290 394.272,176.400 394.416 C 176.705 394.815,184.342 395.607,190.515 395.880 C 193.548 396.014,196.124 396.276,196.238 396.462 C 196.511 396.903,206.289 396.903,206.562 396.462 C 206.676 396.276,209.252 396.014,212.285 395.880 C 218.346 395.612,226.086 394.818,226.400 394.431 C 226.510 394.296,229.120 393.763,232.200 393.246 C 235.280 392.729,237.890 392.186,238.000 392.041 C 238.110 391.895,240.000 391.350,242.200 390.828 C 244.400 390.306,246.470 389.735,246.800 389.558 C 247.130 389.381,248.750 388.834,250.400 388.343 C 252.050 387.851,253.490 387.329,253.600 387.183 C 253.710 387.037,254.786 386.593,255.992 386.196 C 257.197 385.799,259.024 385.053,260.050 384.537 C 261.076 384.022,262.094 383.600,262.312 383.600 C 262.952 383.600,273.200 378.355,273.200 378.027 C 273.200 377.863,273.915 377.492,274.790 377.203 C 275.664 376.915,276.700 376.391,277.092 376.039 C 277.484 375.688,278.613 374.959,279.602 374.420 C 280.591 373.881,281.749 373.116,282.175 372.720 C 282.602 372.324,283.153 372.000,283.400 372.000 C 283.647 372.000,284.198 371.679,284.625 371.287 C 285.051 370.895,286.113 370.137,286.985 369.602 C 287.857 369.067,288.847 368.388,289.185 368.094 C 290.576 366.882,296.964 361.999,297.173 361.987 C 297.298 361.981,297.748 361.486,298.173 360.887 L 298.945 359.800 297.985 360.600 C 297.457 361.040,296.788 361.619,296.498 361.886 C 296.208 362.153,295.437 362.687,294.785 363.072 C 294.133 363.457,293.600 363.909,293.600 364.076 C 293.600 364.243,293.077 364.650,292.438 364.980 C 291.799 365.311,291.034 365.818,290.738 366.106 C 290.203 366.629,283.473 371.098,280.800 372.706 C 276.941 375.028,268.976 379.245,265.600 380.755 C 263.510 381.689,261.350 382.688,260.800 382.975 C 260.250 383.262,259.080 383.721,258.200 383.996 C 257.320 384.270,256.060 384.735,255.400 385.030 C 236.605 393.415,197.558 396.889,176.784 392.024 C 175.803 391.794,173.290 391.248,171.200 390.811 C 163.080 389.112,152.303 385.713,145.663 382.757 C 139.618 380.066,136.553 378.648,136.200 378.381 C 135.980 378.214,134.360 377.322,132.600 376.399 C 125.934 372.901,117.173 367.109,111.200 362.249 C 107.215 359.007,106.106 358.052,102.224 354.523 C 94.078 347.116,84.727 335.870,78.162 325.587 C 67.873 309.470,61.202 292.443,57.401 272.600 C 55.021 260.170,54.516 241.541,56.195 228.118 C 57.170 220.332,57.615 217.902,59.553 209.800 C 60.958 203.927,64.129 194.084,65.352 191.800 C 65.706 191.140,65.996 190.443,65.998 190.250 C 66.006 189.043,71.798 177.276,75.767 170.400 C 78.288 166.033,85.391 155.561,86.348 154.800 C 86.599 154.601,87.980 152.655,88.549 151.700 C 89.165 150.667,88.418 151.251,87.533 152.495 M330.000 195.199 C 328.870 195.489,328.730 197.595,329.762 198.783 C 330.057 199.122,330.512 200.317,330.774 201.437 C 331.036 202.557,331.485 203.928,331.773 204.482 C 332.061 205.037,332.714 207.091,333.224 209.045 C 333.734 211.000,334.274 212.690,334.423 212.800 C 334.573 212.910,335.113 215.430,335.624 218.400 C 336.134 221.370,336.676 223.890,336.826 224.000 C 337.383 224.405,338.445 236.046,338.670 244.200 C 338.945 254.190,337.691 272.400,336.728 272.400 C 336.548 272.400,336.400 272.760,336.400 273.201 C 336.400 274.378,334.707 282.566,334.415 282.800 C 334.278 282.910,333.736 284.845,333.211 287.100 C 332.685 289.355,332.130 291.200,331.975 291.200 C 331.821 291.200,331.483 292.055,331.225 293.100 C 330.966 294.145,330.412 295.720,329.993 296.600 C 329.573 297.480,328.966 298.920,328.643 299.800 C 327.779 302.156,325.381 307.494,324.922 308.087 C 324.703 308.369,324.181 309.454,323.762 310.499 C 323.343 311.543,322.887 312.398,322.749 312.399 C 322.610 312.399,322.259 312.985,321.968 313.700 C 321.509 314.828,320.875 315.951,318.517 319.810 C 318.252 320.244,317.544 321.407,316.945 322.394 C 316.346 323.381,315.529 324.539,315.128 324.969 C 314.728 325.399,314.400 325.902,314.400 326.086 C 314.400 326.400,310.442 331.636,308.871 333.400 C 307.863 334.532,306.149 337.124,306.887 336.400 C 307.883 335.423,313.700 328.293,315.000 326.457 C 315.660 325.524,316.785 323.971,317.500 323.005 C 318.215 322.038,318.800 321.119,318.800 320.962 C 318.800 320.804,319.215 320.119,319.722 319.438 C 320.600 318.259,321.902 316.117,323.879 312.600 C 325.589 309.558,329.653 301.088,330.478 298.848 C 330.934 297.612,331.437 296.420,331.597 296.200 C 331.958 295.701,334.847 286.957,336.155 282.400 C 342.402 260.642,342.323 229.777,335.968 209.000 C 332.156 196.541,331.419 194.835,330.000 195.199 M121.700 224.971 C 120.545 226.360,119.600 227.680,119.600 227.905 C 119.600 228.130,119.342 228.413,119.026 228.535 C 118.711 228.656,118.235 229.170,117.969 229.677 C 117.487 230.599,119.218 228.807,121.200 226.333 C 121.750 225.647,122.695 224.557,123.300 223.912 C 123.905 223.267,124.400 222.662,124.400 222.569 C 124.400 221.994,123.541 222.758,121.700 224.971 M116.500 231.544 C 115.913 232.168,115.236 232.984,113.216 235.504 C 113.097 235.652,113.360 235.510,113.800 235.187 C 114.240 234.864,114.750 234.364,114.933 234.076 C 115.117 233.788,115.810 232.933,116.475 232.176 C 117.722 230.755,117.743 230.223,116.500 231.544 M111.616 237.500 C 110.920 238.325,109.956 239.506,109.475 240.124 C 108.994 240.742,108.105 241.727,107.500 242.313 C 106.895 242.899,106.400 243.604,106.400 243.880 C 106.400 244.156,105.950 244.676,105.400 245.037 C 104.850 245.397,104.400 245.910,104.400 246.176 C 104.400 246.443,103.950 247.083,103.400 247.600 C 101.977 248.937,102.161 249.588,104.475 251.400 C 105.598 252.280,106.717 253.180,106.962 253.400 C 108.525 254.808,111.962 257.600,112.133 257.600 C 112.246 257.600,112.867 258.095,113.513 258.700 C 114.597 259.715,115.826 260.748,118.400 262.808 C 119.297 263.526,120.982 264.894,124.600 267.842 C 126.190 269.138,127.298 270.045,133.092 274.792 C 135.783 276.996,138.064 278.800,138.162 278.800 C 138.259 278.800,138.859 279.295,139.495 279.900 C 140.131 280.505,141.246 281.450,141.974 282.000 C 142.702 282.550,143.950 283.584,144.749 284.298 C 145.547 285.012,146.308 285.597,146.441 285.598 C 146.573 285.599,147.293 286.144,148.041 286.809 C 148.788 287.474,149.908 288.419,150.530 288.909 C 151.151 289.399,152.136 290.295,152.719 290.900 C 153.302 291.505,153.939 292.000,154.135 292.000 C 154.331 292.000,155.506 292.876,156.746 293.947 C 157.986 295.018,160.170 296.818,161.600 297.948 C 163.030 299.078,164.663 300.407,165.229 300.901 C 165.796 301.395,166.942 302.340,167.777 303.000 C 170.567 305.204,174.933 308.814,176.400 310.128 C 176.950 310.621,177.352 310.941,177.294 310.840 C 177.236 310.738,177.655 310.169,178.224 309.575 L 179.260 308.494 174.930 304.970 C 172.548 303.032,169.495 300.536,168.144 299.423 C 166.794 298.310,165.012 296.860,164.184 296.200 C 163.357 295.540,161.471 294.010,159.993 292.800 C 158.516 291.590,155.099 288.800,152.400 286.600 C 149.701 284.400,145.744 281.160,143.607 279.400 C 141.469 277.640,139.028 275.660,138.183 275.000 C 137.338 274.340,135.442 272.810,133.971 271.600 C 132.500 270.390,129.076 267.600,126.364 265.400 C 123.652 263.200,119.715 259.987,117.616 258.261 C 112.241 253.840,112.584 254.120,108.294 250.651 C 103.882 247.083,103.991 247.293,105.600 245.461 C 106.260 244.709,106.800 244.014,106.800 243.916 C 106.800 243.819,107.623 242.852,108.628 241.769 C 109.633 240.686,110.718 239.305,111.038 238.700 C 111.358 238.095,111.790 237.600,111.996 237.600 C 112.203 237.600,112.565 237.240,112.800 236.800 C 113.451 235.583,113.019 235.838,111.616 237.500 M302.799 340.500 C 302.210 341.304,302.113 341.584,302.545 341.233 C 303.201 340.700,304.193 339.200,303.889 339.200 C 303.813 339.200,303.322 339.785,302.799 340.500 " stroke="none" fill="#050705" fill-rule="evenodd"></path><path id="path1" d="M191.800 97.855 C 190.260 97.941,188.640 98.172,188.200 98.369 C 187.760 98.566,185.330 98.929,182.800 99.175 C 177.645 99.677,173.797 100.295,172.600 100.813 C 172.160 101.004,169.964 101.522,167.719 101.965 C 165.474 102.407,163.314 102.947,162.919 103.163 C 162.524 103.380,160.625 103.954,158.700 104.439 C 156.775 104.924,155.200 105.440,155.200 105.585 C 155.200 105.730,154.255 106.084,153.100 106.372 C 151.945 106.659,150.130 107.323,149.067 107.847 C 148.004 108.371,146.958 108.800,146.742 108.800 C 146.328 108.800,144.205 109.749,138.000 112.708 C 135.910 113.705,134.110 114.633,134.000 114.771 C 133.890 114.909,133.009 115.371,132.041 115.798 C 131.074 116.225,130.081 116.760,129.834 116.987 C 129.588 117.214,128.501 117.850,127.420 118.400 C 126.338 118.950,125.126 119.715,124.727 120.100 C 124.327 120.485,123.799 120.800,123.554 120.800 C 123.308 120.800,122.249 121.430,121.200 122.200 C 120.151 122.970,119.092 123.600,118.846 123.600 C 118.601 123.600,118.400 123.778,118.400 123.995 C 118.400 124.212,117.649 124.864,116.731 125.443 C 115.814 126.023,114.869 126.654,114.631 126.846 C 114.394 127.037,113.390 127.833,112.400 128.613 C 108.868 131.397,107.417 132.613,106.569 133.500 C 106.096 133.995,105.587 134.400,105.440 134.400 C 104.965 134.400,94.648 144.781,94.886 145.020 C 95.013 145.146,94.662 145.733,94.107 146.325 C 90.141 150.554,82.603 160.516,78.919 166.400 C 77.472 168.710,75.936 171.112,75.505 171.738 C 73.027 175.331,67.327 187.808,63.596 197.800 C 61.411 203.655,58.787 214.244,57.449 222.614 C 45.917 294.739,88.582 364.373,158.000 386.725 C 207.487 402.659,261.088 391.728,300.540 357.657 C 302.487 355.976,304.661 354.240,305.372 353.800 C 306.503 353.100,312.312 347.393,315.210 344.136 C 317.463 341.604,320.000 338.499,320.000 338.275 C 320.000 338.144,320.405 337.595,320.900 337.056 C 322.543 335.266,323.539 333.898,327.372 328.165 C 328.267 326.826,329.450 324.976,330.000 324.054 C 330.550 323.132,331.591 321.438,332.314 320.289 C 333.036 319.140,333.731 317.795,333.857 317.300 C 333.983 316.805,334.226 316.400,334.397 316.400 C 334.568 316.400,335.125 315.365,335.635 314.100 C 336.145 312.835,336.796 311.562,337.081 311.271 C 337.367 310.981,337.600 310.586,337.600 310.395 C 337.600 310.204,338.320 308.518,339.200 306.648 C 340.080 304.778,340.800 303.008,340.800 302.713 C 340.800 302.419,341.047 301.823,341.348 301.389 C 341.650 300.955,342.322 299.250,342.842 297.600 C 343.362 295.950,343.897 294.510,344.030 294.400 C 344.163 294.290,344.601 292.940,345.002 291.400 C 345.404 289.860,345.860 288.420,346.017 288.200 C 346.370 287.705,347.477 283.226,347.847 280.800 C 347.998 279.810,348.264 278.906,348.438 278.790 C 348.613 278.675,349.145 275.795,349.621 272.390 C 350.098 268.986,350.643 265.840,350.833 265.400 C 352.264 262.084,352.258 230.311,350.826 227.000 C 350.635 226.560,350.266 224.400,350.006 222.200 C 349.745 220.000,349.284 217.120,348.982 215.800 C 348.680 214.480,347.980 211.420,347.426 209.000 C 346.873 206.580,346.254 204.317,346.052 203.972 C 345.849 203.627,345.390 202.200,345.032 200.801 C 344.673 199.402,344.232 198.065,344.051 197.829 C 343.870 197.593,343.301 196.005,342.787 194.300 C 342.274 192.595,341.706 191.200,341.527 191.200 C 341.347 191.200,341.200 190.840,341.200 190.400 C 341.200 189.867,340.933 189.600,340.400 189.600 C 339.960 189.600,339.600 189.752,339.600 189.937 C 339.600 190.122,338.835 190.501,337.900 190.778 C 336.965 191.056,335.300 191.699,334.200 192.207 C 333.100 192.715,331.885 193.231,331.500 193.353 C 330.775 193.583,330.507 194.800,331.181 194.800 C 332.345 194.800,337.182 210.050,338.827 218.902 C 344.791 251.007,340.852 279.789,326.562 308.527 C 324.545 312.584,323.801 313.905,321.007 318.400 C 320.254 319.611,317.501 323.763,315.600 326.555 C 312.283 331.426,302.947 341.990,301.952 341.998 C 301.816 341.999,300.729 342.945,299.536 344.100 C 297.612 345.963,295.961 347.443,290.945 351.800 C 290.186 352.460,289.114 353.405,288.564 353.900 C 288.014 354.395,287.463 354.800,287.339 354.800 C 287.216 354.800,286.242 355.475,285.175 356.300 C 282.637 358.263,281.190 359.266,277.800 361.413 C 276.260 362.388,274.819 363.324,274.598 363.493 C 274.376 363.662,273.386 364.232,272.398 364.759 C 271.409 365.287,270.330 365.928,270.000 366.184 C 269.670 366.440,268.590 366.994,267.600 367.414 C 266.610 367.834,265.709 368.302,265.599 368.453 C 265.488 368.604,264.588 369.045,263.599 369.433 C 262.609 369.821,261.371 370.467,260.846 370.869 C 260.321 371.271,259.639 371.600,259.329 371.600 C 259.020 371.600,257.649 372.121,256.283 372.757 C 254.917 373.394,253.035 374.142,252.100 374.421 C 251.165 374.699,250.400 375.089,250.400 375.287 C 250.400 375.485,250.212 375.531,249.982 375.389 C 249.753 375.247,249.348 375.311,249.082 375.530 C 248.817 375.749,247.430 376.231,246.000 376.600 C 244.570 376.969,243.212 377.427,242.982 377.616 C 242.753 377.806,240.773 378.338,238.582 378.798 C 236.392 379.259,234.240 379.805,233.800 380.013 C 232.858 380.458,227.373 381.410,223.400 381.818 C 221.860 381.977,220.509 382.247,220.398 382.419 C 219.634 383.597,187.588 383.611,186.807 382.433 C 186.693 382.262,185.430 382.007,184.000 381.866 C 180.171 381.489,173.031 380.306,172.800 380.010 C 172.690 379.869,170.710 379.340,168.400 378.834 C 166.090 378.327,164.020 377.772,163.800 377.600 C 163.580 377.427,162.230 376.969,160.800 376.580 C 159.370 376.192,158.020 375.747,157.800 375.591 C 157.580 375.434,156.140 374.896,154.600 374.394 C 153.060 373.892,151.710 373.364,151.600 373.220 C 151.490 373.076,150.500 372.630,149.400 372.228 C 146.770 371.266,137.341 366.621,136.800 366.021 C 136.690 365.899,135.700 365.364,134.600 364.832 C 133.500 364.300,132.510 363.747,132.400 363.602 C 132.290 363.458,131.402 362.904,130.427 362.370 C 129.451 361.837,128.210 360.995,127.668 360.500 C 127.126 360.005,126.500 359.600,126.275 359.600 C 126.051 359.600,125.582 359.329,125.234 358.997 C 124.885 358.666,123.430 357.550,122.000 356.518 C 120.570 355.485,118.770 354.122,118.000 353.488 C 117.230 352.854,115.700 351.597,114.600 350.693 C 112.424 348.906,100.663 337.107,98.400 334.441 C 97.630 333.534,96.640 332.392,96.200 331.903 C 95.760 331.415,95.220 330.727,95.000 330.375 C 94.342 329.322,91.864 325.986,90.900 324.855 C 90.406 324.275,90.001 323.597,90.000 323.349 C 90.000 323.101,89.731 322.675,89.403 322.402 C 88.827 321.925,86.873 318.828,85.576 316.339 C 85.233 315.680,84.781 315.019,84.572 314.871 C 84.363 314.722,83.758 313.655,83.227 312.500 C 82.697 311.345,82.156 310.400,82.025 310.400 C 81.893 310.400,81.357 309.320,80.833 308.000 C 80.309 306.680,79.762 305.600,79.619 305.600 C 79.475 305.600,79.020 304.655,78.607 303.500 C 78.194 302.345,77.460 300.590,76.976 299.600 C 76.492 298.610,75.870 297.080,75.596 296.200 C 75.321 295.320,74.956 294.420,74.786 294.200 C 74.615 293.980,74.169 292.720,73.794 291.400 C 73.419 290.080,72.870 288.460,72.575 287.800 C 71.836 286.151,70.100 279.498,69.027 274.200 C 68.536 271.780,68.026 269.530,67.893 269.200 C 65.766 263.922,65.838 224.570,67.978 222.800 C 68.111 222.690,68.547 220.620,68.947 218.200 C 69.347 215.780,69.818 213.620,69.994 213.400 C 70.169 213.180,70.624 211.560,71.004 209.800 C 71.385 208.040,72.026 205.790,72.430 204.800 C 72.834 203.810,73.468 201.920,73.839 200.600 C 74.210 199.280,74.741 197.840,75.019 197.400 C 75.297 196.960,75.844 195.565,76.235 194.300 C 76.626 193.035,77.074 192.000,77.230 192.000 C 77.386 192.000,77.637 191.505,77.787 190.900 C 78.082 189.717,81.601 182.331,82.029 182.000 C 82.170 181.890,82.679 180.906,83.159 179.814 C 83.639 178.722,84.180 177.732,84.362 177.614 C 84.544 177.496,85.086 176.680,85.567 175.800 C 86.889 173.381,88.288 171.093,88.990 170.200 C 90.533 168.238,93.200 164.370,93.200 164.095 C 93.200 163.929,93.560 163.568,94.000 163.293 C 94.440 163.018,94.800 162.535,94.800 162.219 C 94.800 161.904,95.118 161.410,95.507 161.123 C 95.896 160.835,96.504 160.150,96.860 159.600 C 97.215 159.050,99.407 156.506,101.732 153.946 C 104.057 151.387,105.880 149.213,105.782 149.115 C 105.505 148.838,113.788 141.157,118.000 137.786 C 137.056 122.534,159.012 113.275,185.800 109.194 C 194.703 107.838,212.468 107.830,221.200 109.179 C 236.552 111.551,245.334 113.986,258.400 119.493 C 266.018 122.704,274.434 127.452,283.200 133.484 C 286.791 135.955,295.773 143.175,296.453 144.137 C 296.711 144.502,299.746 141.570,302.289 138.500 C 304.066 136.354,304.131 136.455,297.600 131.206 C 294.850 128.996,292.330 126.945,292.000 126.649 C 291.670 126.353,291.009 125.907,290.531 125.658 C 290.053 125.409,289.419 124.979,289.120 124.703 C 288.341 123.980,283.683 120.800,283.404 120.800 C 283.274 120.800,282.233 120.170,281.090 119.400 C 279.946 118.630,278.842 118.000,278.637 118.000 C 278.431 118.000,277.963 117.729,277.597 117.398 C 276.669 116.557,265.323 110.800,264.595 110.800 C 264.268 110.800,264.000 110.644,264.000 110.454 C 264.000 110.263,262.875 109.716,261.500 109.237 C 260.125 108.758,258.657 108.175,258.238 107.941 C 257.819 107.707,256.379 107.165,255.038 106.735 C 253.697 106.305,252.060 105.707,251.400 105.406 C 250.740 105.105,248.940 104.549,247.400 104.171 C 245.860 103.793,244.420 103.351,244.200 103.188 C 243.980 103.026,241.820 102.497,239.400 102.013 C 236.980 101.528,234.640 100.970,234.200 100.773 C 233.184 100.318,222.731 98.805,220.580 98.802 C 219.689 98.801,218.761 98.601,218.517 98.357 C 218.068 97.908,197.708 97.526,191.800 97.855 M346.600 124.856 C 344.400 126.205,341.970 127.685,341.200 128.144 C 340.430 128.604,339.620 129.122,339.400 129.295 C 338.460 130.037,335.839 131.666,334.414 132.393 C 333.567 132.825,332.812 133.318,332.737 133.489 C 332.662 133.660,331.790 134.241,330.800 134.780 C 329.810 135.319,328.820 135.907,328.600 136.087 C 328.380 136.267,326.940 137.212,325.400 138.187 C 323.860 139.162,322.060 140.346,321.400 140.817 C 320.249 141.638,314.602 145.368,313.250 146.200 C 312.893 146.420,311.766 147.185,310.746 147.900 C 309.727 148.615,308.752 149.200,308.580 149.200 C 308.408 149.200,307.982 149.475,307.634 149.811 C 306.878 150.540,304.868 151.948,302.408 153.473 C 301.423 154.084,300.298 154.902,299.908 155.292 C 299.519 155.681,299.053 156.000,298.872 156.000 C 298.602 156.000,295.333 158.256,293.800 159.501 C 293.580 159.679,292.725 160.239,291.900 160.745 C 291.075 161.251,290.400 161.831,290.400 162.033 C 290.400 162.235,290.175 162.405,289.900 162.411 C 289.625 162.417,288.383 163.182,287.141 164.111 C 285.898 165.040,284.478 166.070,283.985 166.400 C 283.492 166.730,282.054 167.765,280.789 168.700 C 279.525 169.635,278.388 170.400,278.263 170.400 C 278.138 170.400,277.601 170.805,277.069 171.300 C 276.537 171.795,275.445 172.650,274.641 173.200 C 273.359 174.078,270.207 176.372,267.800 178.179 C 267.360 178.509,264.957 180.359,262.459 182.290 C 259.962 184.220,257.455 186.105,256.888 186.478 C 256.321 186.851,255.700 187.436,255.508 187.778 C 255.317 188.120,254.986 188.400,254.774 188.400 C 254.350 188.400,246.916 194.214,244.161 196.700 C 243.612 197.195,243.059 197.600,242.930 197.600 C 242.802 197.600,242.039 198.185,241.234 198.900 C 240.430 199.615,238.979 200.830,238.011 201.600 C 237.042 202.370,235.699 203.489,235.025 204.086 C 234.351 204.683,233.260 205.627,232.600 206.185 C 229.879 208.483,227.841 210.235,227.229 210.800 C 226.403 211.564,220.159 217.134,218.683 218.424 C 210.571 225.513,188.155 247.682,178.327 258.336 C 175.726 261.155,175.778 261.134,174.729 259.800 C 174.296 259.250,173.751 258.800,173.517 258.800 C 173.283 258.800,172.667 258.395,172.148 257.900 C 170.930 256.738,169.018 255.109,166.970 253.489 C 164.775 251.752,162.209 249.673,161.262 248.864 C 160.835 248.499,158.814 246.850,156.770 245.200 C 154.727 243.550,152.391 241.615,151.579 240.900 C 150.767 240.185,149.998 239.600,149.870 239.600 C 149.741 239.600,149.188 239.195,148.639 238.700 C 148.090 238.205,147.090 237.350,146.416 236.800 C 145.742 236.250,144.671 235.350,144.035 234.800 C 143.400 234.250,141.647 232.811,140.140 231.602 C 138.633 230.393,137.130 229.186,136.800 228.921 C 136.470 228.655,134.104 226.719,131.542 224.619 C 128.980 222.519,126.622 220.800,126.304 220.800 C 125.586 220.800,124.400 222.065,124.400 222.831 C 124.399 223.404,122.740 225.518,112.806 237.600 C 109.822 241.230,106.849 244.900,106.201 245.755 L 105.021 247.310 106.611 248.698 C 107.485 249.461,108.828 250.562,109.596 251.143 C 110.364 251.724,113.964 254.637,117.596 257.616 C 121.228 260.595,125.640 264.191,127.400 265.606 C 129.160 267.021,131.790 269.173,133.245 270.389 C 134.699 271.605,136.499 273.073,137.245 273.650 C 137.990 274.228,143.280 278.514,149.000 283.176 C 154.720 287.837,159.940 292.084,160.600 292.613 C 161.260 293.142,164.950 296.152,168.800 299.300 C 172.650 302.449,176.756 305.781,177.925 306.704 L 180.049 308.382 184.055 303.491 C 186.258 300.801,188.632 297.967,189.330 297.193 C 211.872 272.216,233.807 250.447,252.800 234.205 C 261.230 226.996,273.463 216.977,277.226 214.200 C 278.982 212.904,295.672 200.387,297.200 199.220 C 298.645 198.116,313.740 187.449,319.400 183.532 C 332.178 174.689,357.397 158.363,367.933 152.114 C 368.490 151.783,366.844 148.853,355.897 130.694 C 354.264 127.986,353.133 125.736,352.383 123.700 C 351.727 121.924,351.214 122.027,346.600 124.856 " stroke="none" fill="#6bfb6b" fill-rule="evenodd"></path><path id="path2" d="M189.700 109.076 C 190.085 109.176,190.715 109.176,191.100 109.076 C 191.485 108.975,191.170 108.893,190.400 108.893 C 189.630 108.893,189.315 108.975,189.700 109.076 M215.700 109.076 C 216.085 109.176,216.715 109.176,217.100 109.076 C 217.485 108.975,217.170 108.893,216.400 108.893 C 215.630 108.893,215.315 108.975,215.700 109.076 M245.375 240.900 L 244.200 242.200 245.500 241.025 C 246.215 240.379,246.800 239.794,246.800 239.725 C 246.800 239.416,246.470 239.688,245.375 240.900 M55.361 246.000 C 55.361 249.410,55.422 250.805,55.497 249.100 C 55.572 247.395,55.572 244.605,55.497 242.900 C 55.422 241.195,55.361 242.590,55.361 246.000 M235.775 249.700 L 234.600 251.000 235.900 249.825 C 236.615 249.179,237.200 248.594,237.200 248.525 C 237.200 248.216,236.870 248.488,235.775 249.700 M228.581 256.500 L 227.000 258.200 228.700 256.619 C 229.635 255.749,230.400 254.984,230.400 254.919 C 230.400 254.616,230.052 254.919,228.581 256.500 M210.800 274.200 C 209.828 275.190,209.123 276.000,209.233 276.000 C 209.343 276.000,210.228 275.190,211.200 274.200 C 212.172 273.210,212.877 272.400,212.767 272.400 C 212.657 272.400,211.772 273.210,210.800 274.200 M203.578 281.900 L 202.200 283.400 203.700 282.022 C 205.096 280.738,205.384 280.400,205.078 280.400 C 205.012 280.400,204.337 281.075,203.578 281.900 M197.978 287.900 L 196.600 289.400 198.100 288.022 C 199.496 286.738,199.784 286.400,199.478 286.400 C 199.412 286.400,198.737 287.075,197.978 287.900 M179.013 309.414 L 177.513 310.828 178.577 311.814 C 179.956 313.091,180.460 313.057,181.528 311.611 L 182.407 310.423 181.383 309.752 C 180.817 309.382,180.453 308.840,180.567 308.541 C 180.875 307.739,180.662 307.858,179.013 309.414 M307.578 335.900 L 306.200 337.400 307.700 336.022 C 309.096 334.738,309.384 334.400,309.078 334.400 C 309.012 334.400,308.337 335.075,307.578 335.900 M94.000 346.125 C 94.000 346.194,94.585 346.779,95.300 347.425 L 96.600 348.600 95.425 347.300 C 94.330 346.088,94.000 345.816,94.000 346.125 M102.400 354.600 C 103.146 355.370,103.847 356.000,103.957 356.000 C 104.067 356.000,103.546 355.370,102.800 354.600 C 102.054 353.830,101.353 353.200,101.243 353.200 C 101.133 353.200,101.654 353.830,102.400 354.600 M292.200 364.635 L 291.000 365.666 292.300 364.806 C 293.015 364.333,293.600 363.868,293.600 363.773 C 293.600 363.473,293.431 363.578,292.200 364.635 " stroke="none" fill="#449744" fill-rule="evenodd"></path><path id="path3" d="M199.322 108.699 C 201.699 108.770,205.479 108.769,207.722 108.698 C 209.965 108.627,208.020 108.569,203.400 108.569 C 198.780 108.570,196.945 108.628,199.322 108.699 M192.300 109.082 C 192.795 109.178,193.605 109.178,194.100 109.082 C 194.595 108.987,194.190 108.909,193.200 108.909 C 192.210 108.909,191.805 108.987,192.300 109.082 M212.700 109.082 C 213.195 109.178,214.005 109.178,214.500 109.082 C 214.995 108.987,214.590 108.909,213.600 108.909 C 212.610 108.909,212.205 108.987,212.700 109.082 M122.600 134.650 C 121.881 135.262,121.734 135.505,122.233 135.257 C 122.966 134.893,124.341 133.576,123.949 133.614 C 123.867 133.622,123.260 134.088,122.600 134.650 M112.600 142.710 C 112.380 142.873,111.752 143.545,111.204 144.203 C 110.310 145.277,110.361 145.258,111.704 144.022 C 113.059 142.773,113.391 142.388,113.100 142.406 C 113.045 142.409,112.820 142.546,112.600 142.710 M83.923 157.900 C 83.160 158.789,82.695 159.600,82.949 159.600 C 83.057 159.600,83.530 159.060,84.000 158.400 C 84.932 157.091,84.884 156.781,83.923 157.900 M118.188 229.900 L 117.485 231.000 118.542 230.030 C 119.686 228.982,119.790 228.800,119.246 228.800 C 119.051 228.800,118.575 229.295,118.188 229.900 M340.509 234.800 C 340.509 235.790,340.587 236.195,340.682 235.700 C 340.778 235.205,340.778 234.395,340.682 233.900 C 340.587 233.405,340.509 233.810,340.509 234.800 M55.334 237.200 C 55.334 238.850,55.405 239.525,55.491 238.700 C 55.578 237.875,55.578 236.525,55.491 235.700 C 55.405 234.875,55.334 235.550,55.334 237.200 M340.969 246.200 C 340.970 250.820,341.028 252.655,341.099 250.278 C 341.170 247.901,341.169 244.121,341.098 241.878 C 341.027 239.635,340.969 241.580,340.969 246.200 M246.975 239.700 L 245.800 241.000 247.100 239.825 C 247.815 239.179,248.400 238.594,248.400 238.525 C 248.400 238.216,248.070 238.488,246.975 239.700 M242.975 243.300 L 241.800 244.600 243.100 243.425 C 244.312 242.330,244.584 242.000,244.275 242.000 C 244.206 242.000,243.621 242.585,242.975 243.300 M104.946 246.226 C 104.300 247.212,104.311 247.286,105.222 248.126 L 106.170 249.000 105.454 248.134 C 104.777 247.316,104.775 247.210,105.415 246.234 C 105.787 245.665,105.985 245.200,105.855 245.200 C 105.725 245.200,105.316 245.662,104.946 246.226 M238.778 247.100 L 237.400 248.600 238.900 247.222 C 240.296 245.938,240.584 245.600,240.278 245.600 C 240.212 245.600,239.537 246.275,238.778 247.100 M232.187 253.300 L 229.800 255.800 232.300 253.413 C 233.675 252.099,234.800 250.974,234.800 250.913 C 234.800 250.617,234.405 250.978,232.187 253.300 M55.337 255.000 C 55.339 256.760,55.409 257.430,55.493 256.489 C 55.578 255.549,55.577 254.109,55.491 253.289 C 55.405 252.470,55.336 253.240,55.337 255.000 M340.501 257.400 C 340.505 258.280,340.587 258.593,340.683 258.095 C 340.779 257.598,340.775 256.878,340.675 256.495 C 340.575 256.113,340.496 256.520,340.501 257.400 M207.387 278.100 L 205.000 280.600 207.500 278.213 C 208.875 276.899,210.000 275.774,210.000 275.713 C 210.000 275.417,209.605 275.778,207.387 278.100 M200.981 284.900 L 199.400 286.600 201.100 285.019 C 202.681 283.548,202.984 283.200,202.681 283.200 C 202.616 283.200,201.851 283.965,200.981 284.900 M178.537 307.931 C 179.157 308.616,179.136 308.721,178.201 309.599 C 177.652 310.115,177.282 310.616,177.379 310.713 C 177.476 310.810,178.018 310.390,178.582 309.781 C 179.541 308.747,179.238 307.200,178.076 307.200 C 177.966 307.200,178.174 307.529,178.537 307.931 M180.400 308.754 C 180.400 308.949,180.895 309.425,181.500 309.812 L 182.600 310.515 181.630 309.458 C 180.582 308.314,180.400 308.210,180.400 308.754 M304.809 338.500 L 303.485 340.200 305.023 338.713 C 305.868 337.896,306.464 337.131,306.347 337.013 C 306.230 336.896,305.538 337.565,304.809 338.500 M91.600 343.725 C 91.600 343.794,92.185 344.379,92.900 345.025 L 94.200 346.200 93.025 344.900 C 91.930 343.688,91.600 343.416,91.600 343.725 M98.400 351.000 C 99.817 352.430,101.067 353.600,101.177 353.600 C 101.287 353.600,100.217 352.430,98.800 351.000 C 97.383 349.570,96.133 348.400,96.023 348.400 C 95.913 348.400,96.983 349.570,98.400 351.000 M200.917 394.297 C 202.411 394.374,204.751 394.374,206.117 394.296 C 207.482 394.218,206.260 394.155,203.400 394.155 C 200.540 394.156,199.422 394.220,200.917 394.297 " stroke="none" fill="#2c642c" fill-rule="evenodd"></path><path id="path4" d="M200.518 108.298 C 202.233 108.373,204.933 108.372,206.518 108.297 C 208.103 108.221,206.700 108.159,203.400 108.160 C 200.100 108.161,198.803 108.222,200.518 108.298 M218.100 109.076 C 218.485 109.176,219.115 109.176,219.500 109.076 C 219.885 108.975,219.570 108.893,218.800 108.893 C 218.030 108.893,217.715 108.975,218.100 109.076 M221.300 109.476 C 221.685 109.576,222.315 109.576,222.700 109.476 C 223.085 109.375,222.770 109.293,222.000 109.293 C 221.230 109.293,220.915 109.375,221.300 109.476 M260.433 120.549 C 260.845 120.917,263.200 122.000,263.200 121.821 C 263.200 121.590,260.982 120.400,260.553 120.400 C 260.396 120.400,260.342 120.467,260.433 120.549 M113.375 141.700 L 112.200 143.000 113.500 141.825 C 114.712 140.730,114.984 140.400,114.675 140.400 C 114.606 140.400,114.021 140.985,113.375 141.700 M108.450 146.201 C 106.827 147.850,105.657 149.197,105.850 149.193 C 106.178 149.187,106.976 148.394,110.378 144.698 C 112.758 142.113,111.532 143.068,108.450 146.201 M93.146 146.900 C 92.813 147.175,91.577 148.660,90.401 150.200 C 87.909 153.461,88.531 152.958,91.760 149.100 C 94.009 146.414,94.304 145.946,93.146 146.900 M85.200 156.800 C 84.730 157.460,84.436 158.000,84.546 158.000 C 84.656 158.000,85.130 157.460,85.600 156.800 C 86.070 156.140,86.364 155.600,86.254 155.600 C 86.144 155.600,85.670 156.140,85.200 156.800 M337.268 212.800 C 337.288 213.839,337.918 215.546,337.932 214.600 C 337.938 214.160,337.789 213.440,337.600 213.000 C 337.389 212.510,337.261 212.432,337.268 212.800 M120.000 228.400 C 119.303 229.280,118.823 230.000,118.933 230.000 C 119.043 230.000,119.703 229.280,120.400 228.400 C 121.097 227.520,121.577 226.800,121.467 226.800 C 121.357 226.800,120.697 227.520,120.000 228.400 M340.893 234.800 C 340.893 235.570,340.975 235.885,341.076 235.500 C 341.176 235.115,341.176 234.485,341.076 234.100 C 340.975 233.715,340.893 234.030,340.893 234.800 M55.709 236.000 C 55.709 236.990,55.787 237.395,55.882 236.900 C 55.978 236.405,55.978 235.595,55.882 235.100 C 55.787 234.605,55.709 235.010,55.709 236.000 M243.381 242.500 L 241.800 244.200 243.500 242.619 C 245.081 241.148,245.384 240.800,245.081 240.800 C 245.016 240.800,244.251 241.565,243.381 242.500 M341.358 246.200 C 341.358 249.280,341.421 250.487,341.497 248.882 C 341.573 247.278,341.573 244.758,341.496 243.282 C 341.419 241.807,341.357 243.120,341.358 246.200 M238.581 246.900 L 237.000 248.600 238.700 247.019 C 239.635 246.149,240.400 245.384,240.400 245.319 C 240.400 245.016,240.052 245.319,238.581 246.900 M105.183 246.620 C 104.756 247.135,104.795 247.355,105.412 247.920 C 106.115 248.562,106.127 248.561,105.629 247.900 C 105.207 247.340,105.202 247.080,105.600 246.600 C 105.874 246.270,106.008 246.000,105.898 246.000 C 105.788 246.000,105.466 246.279,105.183 246.620 M231.781 253.300 L 230.200 255.000 231.900 253.419 C 232.835 252.549,233.600 251.784,233.600 251.719 C 233.600 251.416,233.252 251.719,231.781 253.300 M55.701 256.200 C 55.705 257.080,55.787 257.393,55.883 256.895 C 55.979 256.398,55.975 255.678,55.875 255.295 C 55.775 254.913,55.696 255.320,55.701 256.200 M340.901 257.400 C 340.905 258.280,340.987 258.593,341.083 258.095 C 341.179 257.598,341.175 256.878,341.075 256.495 C 340.975 256.113,340.896 256.520,340.901 257.400 M207.578 277.500 L 206.200 279.000 207.700 277.622 C 209.096 276.338,209.384 276.000,209.078 276.000 C 209.012 276.000,208.337 276.675,207.578 277.500 M58.868 278.400 C 58.888 279.439,59.518 281.146,59.532 280.200 C 59.538 279.760,59.389 279.040,59.200 278.600 C 58.989 278.110,58.861 278.032,58.868 278.400 M195.375 290.500 L 194.200 291.800 195.500 290.625 C 196.712 289.530,196.984 289.200,196.675 289.200 C 196.606 289.200,196.021 289.785,195.375 290.500 M191.775 294.500 L 190.600 295.800 191.900 294.625 C 193.112 293.530,193.384 293.200,193.075 293.200 C 193.006 293.200,192.421 293.785,191.775 294.500 M188.575 298.100 L 187.400 299.400 188.700 298.225 C 189.912 297.130,190.184 296.800,189.875 296.800 C 189.806 296.800,189.221 297.385,188.575 298.100 M93.200 345.000 C 93.946 345.770,94.647 346.400,94.757 346.400 C 94.867 346.400,94.346 345.770,93.600 345.000 C 92.854 344.230,92.153 343.600,92.043 343.600 C 91.933 343.600,92.454 344.230,93.200 345.000 M303.694 355.026 L 302.200 356.451 303.691 355.526 C 304.511 355.016,305.271 354.375,305.379 354.100 C 305.699 353.284,305.276 353.517,303.694 355.026 M103.200 354.925 C 103.200 354.994,103.785 355.579,104.500 356.225 L 105.800 357.400 104.625 356.100 C 103.530 354.888,103.200 354.616,103.200 354.925 M272.700 376.629 C 271.205 377.440,271.296 377.778,272.800 377.000 C 273.460 376.659,274.000 376.294,274.000 376.190 C 274.000 375.932,273.957 375.947,272.700 376.629 M219.700 393.076 C 220.085 393.176,220.715 393.176,221.100 393.076 C 221.485 392.975,221.170 392.893,220.400 392.893 C 219.630 392.893,219.315 392.975,219.700 393.076 M189.500 393.482 C 189.995 393.578,190.805 393.578,191.300 393.482 C 191.795 393.387,191.390 393.309,190.400 393.309 C 189.410 393.309,189.005 393.387,189.500 393.482 M215.905 393.483 C 216.402 393.579,217.122 393.575,217.505 393.475 C 217.887 393.375,217.480 393.296,216.600 393.301 C 215.720 393.305,215.407 393.387,215.905 393.483 M194.100 393.876 C 194.485 393.976,195.115 393.976,195.500 393.876 C 195.885 393.775,195.570 393.693,194.800 393.693 C 194.030 393.693,193.715 393.775,194.100 393.876 " stroke="none" fill="#57c957" fill-rule="evenodd"></path></g></svg>