<svg id="svg" version="1.1" xmlns="http://www.w3.org/2000/svg" xmlns:xlink="http://www.w3.org/1999/xlink" width="400" height="406.6746126340882" viewBox="0, 0, 400,406.6746126340882"><g id="svgg"><path id="path0" d="M185.800 55.602 C 179.155 56.121,173.200 56.901,173.200 57.252 C 173.200 57.443,172.762 57.600,172.226 57.600 C 170.911 57.600,161.264 59.568,160.450 60.003 C 160.092 60.194,158.270 60.740,156.400 61.216 C 154.530 61.693,152.820 62.215,152.600 62.375 C 152.380 62.536,150.850 63.082,149.200 63.588 C 147.550 64.095,146.110 64.638,146.000 64.795 C 145.890 64.953,144.540 65.495,143.000 66.000 C 141.460 66.505,140.110 67.037,140.000 67.180 C 139.890 67.324,138.810 67.857,137.600 68.365 C 136.390 68.873,135.130 69.509,134.800 69.780 C 134.470 70.050,133.165 70.681,131.900 71.182 C 130.635 71.683,129.598 72.207,129.596 72.346 C 129.594 72.486,128.604 73.039,127.396 73.576 C 126.188 74.113,125.200 74.668,125.200 74.808 C 125.200 74.948,124.300 75.485,123.200 76.000 C 122.100 76.515,121.200 77.058,121.200 77.205 C 121.200 77.353,120.390 77.891,119.400 78.400 C 118.410 78.909,117.600 79.465,117.600 79.635 C 117.600 79.805,116.793 80.347,115.806 80.840 C 114.819 81.333,113.618 82.155,113.136 82.668 C 112.655 83.181,112.032 83.600,111.753 83.600 C 111.474 83.600,111.010 83.929,110.723 84.331 C 110.435 84.733,109.906 85.228,109.547 85.431 C 106.445 87.186,92.800 99.862,92.800 100.988 C 92.800 101.271,92.515 101.738,92.167 102.027 C 91.563 102.529,89.525 104.985,84.192 111.641 C 47.748 157.128,43.171 224.086,73.016 275.141 C 75.661 279.666,82.619 289.800,85.398 293.174 C 122.952 338.777,180.469 357.413,237.800 342.553 C 240.880 341.755,243.571 340.944,243.780 340.751 C 243.989 340.558,244.407 340.400,244.709 340.400 C 246.944 340.400,266.272 331.868,272.600 328.087 C 274.713 326.825,282.631 321.649,284.970 320.000 C 287.229 318.409,294.103 312.988,296.600 310.830 C 298.140 309.499,299.631 308.408,299.913 308.405 C 300.195 308.402,301.848 306.915,303.587 305.100 C 305.325 303.285,307.192 301.342,307.734 300.782 C 309.157 299.315,312.800 294.921,312.800 294.672 C 312.800 294.556,313.295 293.933,313.900 293.288 C 314.505 292.643,315.411 291.594,315.914 290.957 C 316.417 290.321,317.362 289.175,318.014 288.411 C 318.666 287.647,319.200 286.837,319.201 286.611 C 319.201 286.385,319.744 285.570,320.406 284.800 C 321.069 284.030,321.832 282.905,322.103 282.300 C 322.374 281.695,322.742 281.200,322.921 281.200 C 323.101 281.200,323.136 281.020,323.000 280.800 C 322.864 280.580,322.931 280.400,323.148 280.400 C 323.366 280.400,323.962 279.550,324.472 278.512 C 324.982 277.473,325.715 276.303,326.100 275.912 C 326.485 275.520,326.800 274.930,326.800 274.600 C 326.800 274.270,327.131 273.669,327.535 273.265 C 327.939 272.861,328.692 271.511,329.208 270.265 C 329.725 269.019,330.272 268.000,330.425 268.000 C 330.578 268.000,331.106 266.920,331.600 265.600 C 332.094 264.280,332.630 263.200,332.793 263.200 C 332.955 263.200,333.590 261.715,334.203 259.900 C 334.816 258.085,335.451 256.510,335.614 256.400 C 335.777 256.290,336.296 254.947,336.768 253.416 C 337.240 251.884,337.777 250.534,337.962 250.416 C 338.147 250.297,338.695 248.582,339.180 246.605 C 339.665 244.627,340.190 242.917,340.347 242.805 C 340.628 242.604,341.711 238.149,342.244 235.000 C 342.393 234.120,342.645 233.310,342.803 233.200 C 343.141 232.965,344.800 222.242,344.800 220.292 C 344.800 219.560,345.025 218.735,345.300 218.460 C 345.684 218.076,345.800 214.137,345.800 201.513 C 345.800 188.712,345.689 185.030,345.300 184.900 C 345.025 184.808,344.800 184.097,344.800 183.319 C 344.800 181.301,343.163 170.239,342.829 170.000 C 342.675 169.890,342.129 167.730,341.614 165.200 C 341.099 162.670,340.559 160.510,340.413 160.400 C 340.266 160.290,339.721 158.670,339.200 156.800 C 338.679 154.930,338.141 153.310,338.003 153.200 C 337.866 153.090,337.314 151.509,336.777 149.686 C 335.603 145.705,335.097 145.423,331.872 146.949 C 330.680 147.513,328.826 148.269,327.752 148.631 C 324.889 149.594,324.000 150.498,325.525 150.896 C 326.731 151.212,330.613 163.116,332.760 173.084 C 340.463 208.836,332.900 247.890,312.482 277.800 C 306.947 285.908,297.680 296.744,296.765 296.178 C 296.607 296.081,296.290 296.541,296.060 297.200 C 295.815 297.902,295.358 298.400,294.958 298.400 C 294.582 298.400,293.448 299.190,292.437 300.156 C 288.854 303.580,287.961 304.373,286.688 305.259 C 285.979 305.751,285.040 306.478,284.600 306.873 C 284.160 307.269,283.322 308.019,282.738 308.540 C 282.154 309.061,281.029 309.888,280.238 310.377 C 279.447 310.865,278.800 311.431,278.800 311.633 C 278.800 311.835,278.613 312.000,278.384 312.000 C 277.946 312.000,275.980 313.313,274.640 314.500 C 274.205 314.885,273.693 315.200,273.503 315.200 C 273.312 315.200,272.131 315.895,270.878 316.744 C 269.625 317.593,268.195 318.415,267.700 318.571 C 267.205 318.726,266.800 318.991,266.800 319.159 C 266.800 319.326,265.855 319.897,264.700 320.427 C 263.545 320.958,262.510 321.506,262.400 321.646 C 262.290 321.785,261.210 322.319,260.000 322.832 C 258.790 323.345,257.746 323.889,257.680 324.041 C 257.615 324.193,256.445 324.724,255.080 325.222 C 253.716 325.720,252.330 326.340,252.000 326.599 C 251.670 326.859,250.410 327.373,249.199 327.742 C 247.989 328.110,246.498 328.671,245.887 328.988 C 245.276 329.305,243.387 329.952,241.688 330.426 C 239.990 330.899,238.420 331.427,238.200 331.600 C 237.980 331.772,235.910 332.327,233.600 332.834 C 231.290 333.340,229.310 333.875,229.200 334.023 C 228.955 334.352,218.158 336.000,216.246 336.000 C 215.487 336.000,214.792 336.225,214.700 336.500 C 214.570 336.888,211.111 337.000,199.200 337.000 C 187.289 337.000,183.829 336.888,183.700 336.500 C 183.608 336.225,182.995 336.000,182.336 336.000 C 180.444 336.000,170.227 334.365,170.003 334.027 C 169.891 333.859,168.990 333.596,168.000 333.443 C 165.379 333.039,160.633 331.884,160.400 331.596 C 160.290 331.459,158.670 330.921,156.800 330.400 C 154.930 329.879,153.303 329.312,153.184 329.140 C 153.066 328.967,151.728 328.443,150.211 327.974 C 148.695 327.506,147.082 326.882,146.627 326.588 C 146.172 326.293,144.720 325.654,143.400 325.167 C 142.080 324.680,140.910 324.150,140.800 323.991 C 140.690 323.831,139.610 323.282,138.400 322.771 C 137.190 322.260,136.110 321.721,136.000 321.574 C 135.890 321.426,134.900 320.828,133.800 320.245 C 131.396 318.970,128.737 317.392,126.480 315.900 C 125.565 315.295,124.641 314.800,124.428 314.800 C 124.214 314.800,123.896 314.550,123.720 314.244 C 123.544 313.939,122.732 313.316,121.916 312.860 C 121.099 312.404,120.109 311.746,119.716 311.398 C 118.374 310.212,114.455 307.200,114.252 307.200 C 114.020 307.200,112.756 306.073,109.517 302.980 C 108.262 301.781,107.117 300.800,106.974 300.800 C 106.645 300.800,100.000 294.204,100.000 293.878 C 100.000 293.746,99.100 292.738,98.000 291.638 C 96.900 290.538,96.000 289.455,96.000 289.231 C 96.000 289.007,95.460 288.425,94.800 287.937 C 94.140 287.449,93.600 286.826,93.600 286.554 C 93.600 286.281,93.150 285.704,92.600 285.271 C 92.050 284.839,91.600 284.368,91.600 284.226 C 91.600 283.940,90.217 281.946,89.049 280.548 C 88.636 280.053,88.096 279.310,87.849 278.896 C 86.565 276.743,84.928 274.244,84.369 273.583 C 84.022 273.173,83.410 272.109,83.008 271.218 C 82.607 270.328,82.148 269.600,81.989 269.600 C 81.829 269.600,81.293 268.658,80.798 267.507 C 80.303 266.355,79.683 265.230,79.421 265.007 C 79.159 264.783,78.600 263.790,78.179 262.800 C 77.759 261.810,77.186 260.762,76.907 260.471 C 76.628 260.181,76.400 259.701,76.400 259.405 C 76.400 258.745,74.861 255.096,74.461 254.808 C 74.302 254.694,73.735 253.250,73.200 251.600 C 72.665 249.950,72.105 248.510,71.955 248.400 C 71.805 248.290,71.268 246.670,70.763 244.800 C 70.257 242.930,69.711 241.307,69.549 241.193 C 69.387 241.079,68.847 239.189,68.349 236.993 C 67.851 234.797,67.317 232.910,67.164 232.800 C 66.840 232.568,65.351 223.515,64.959 219.400 C 64.812 217.860,64.492 216.347,64.246 216.039 C 63.621 215.252,63.620 187.950,64.245 187.161 C 64.490 186.853,64.803 185.430,64.941 184.000 C 65.379 179.452,66.930 170.400,67.271 170.400 C 67.452 170.400,67.600 170.118,67.600 169.774 C 67.600 168.734,69.309 161.815,69.619 161.600 C 69.777 161.490,70.308 159.969,70.797 158.220 C 71.286 156.470,71.917 154.670,72.199 154.220 C 72.480 153.769,72.934 152.680,73.206 151.800 C 73.919 149.496,78.967 138.594,79.597 138.000 C 79.713 137.890,80.242 136.855,80.773 135.700 C 81.303 134.545,81.874 133.600,82.041 133.600 C 82.209 133.600,82.473 133.199,82.629 132.709 C 82.784 132.219,83.536 130.914,84.299 129.809 C 85.063 128.704,85.843 127.395,86.034 126.900 C 86.224 126.405,86.565 126.000,86.790 126.000 C 87.016 126.000,87.200 125.808,87.200 125.573 C 87.200 125.339,87.650 124.557,88.200 123.836 C 88.750 123.114,89.200 122.415,89.200 122.280 C 89.200 122.146,89.630 121.558,90.155 120.973 C 91.582 119.382,92.117 118.721,93.147 117.275 C 94.445 115.452,96.767 112.854,101.105 108.371 C 103.142 106.266,104.712 104.445,104.593 104.326 C 103.860 103.594,115.745 93.487,123.200 88.502 C 130.657 83.516,142.080 77.446,148.600 75.005 C 154.276 72.880,160.686 70.756,163.800 69.970 C 165.560 69.526,167.720 68.977,168.600 68.751 C 203.121 59.878,246.735 68.134,276.341 89.145 C 278.399 90.605,280.476 92.070,280.957 92.400 C 282.604 93.531,287.800 97.776,289.697 99.540 C 291.507 101.223,292.800 101.402,292.800 99.969 C 292.800 99.786,293.880 98.600,295.200 97.335 C 296.520 96.069,297.600 94.801,297.600 94.517 C 297.600 94.233,297.780 94.000,298.000 94.000 C 298.789 94.000,298.363 92.982,297.164 92.000 C 296.491 91.450,295.357 90.415,294.642 89.700 C 293.928 88.985,293.135 88.400,292.881 88.400 C 292.627 88.400,292.124 87.950,291.763 87.400 C 291.403 86.850,290.946 86.400,290.748 86.400 C 290.551 86.400,289.423 85.635,288.242 84.700 C 284.516 81.749,283.496 81.015,282.332 80.450 C 281.710 80.148,281.200 79.767,281.200 79.605 C 281.200 79.443,280.300 78.883,279.200 78.361 C 278.100 77.838,277.200 77.287,277.200 77.136 C 277.200 76.870,274.315 75.161,271.000 73.464 C 270.120 73.013,269.310 72.540,269.200 72.413 C 268.990 72.170,264.299 69.859,259.200 67.487 C 257.550 66.720,255.435 65.863,254.500 65.583 C 253.565 65.303,252.800 64.956,252.800 64.812 C 252.800 64.669,251.675 64.222,250.300 63.820 C 248.925 63.418,247.080 62.776,246.200 62.392 C 245.320 62.009,243.160 61.366,241.400 60.964 C 239.640 60.562,238.108 60.104,237.995 59.946 C 237.758 59.615,230.496 58.112,227.338 57.741 C 226.162 57.603,225.200 57.364,225.200 57.210 C 225.200 56.892,219.624 56.165,212.800 55.593 C 207.670 55.162,191.354 55.168,185.800 55.602 M345.386 81.581 C 344.938 81.762,344.331 82.201,344.037 82.555 C 343.743 82.910,343.299 83.204,343.051 83.209 C 342.639 83.216,337.600 86.277,336.556 87.154 C 336.312 87.359,335.342 87.919,334.400 88.400 C 333.458 88.880,332.319 89.617,331.868 90.037 C 331.418 90.457,330.858 90.800,330.625 90.801 C 330.194 90.802,326.286 93.275,324.337 94.779 C 323.752 95.231,323.144 95.600,322.985 95.600 C 322.827 95.600,321.642 96.320,320.353 97.200 C 319.064 98.080,317.836 98.800,317.624 98.800 C 317.413 98.800,317.096 99.046,316.920 99.346 C 316.744 99.646,316.060 100.168,315.400 100.505 C 314.032 101.204,310.113 103.705,309.169 104.481 C 308.202 105.277,306.280 106.424,305.500 106.671 C 305.115 106.793,304.800 107.055,304.800 107.252 C 304.800 107.449,303.990 108.004,303.000 108.485 C 302.010 108.966,301.200 109.485,301.200 109.639 C 301.200 109.793,300.469 110.300,299.576 110.766 C 298.683 111.231,297.470 112.059,296.880 112.606 C 296.291 113.153,295.615 113.600,295.380 113.600 C 295.144 113.600,294.602 113.921,294.175 114.313 C 293.749 114.705,292.680 115.463,291.800 115.998 C 290.920 116.533,289.967 117.197,289.681 117.475 C 289.396 117.753,288.541 118.275,287.781 118.636 C 287.022 118.996,286.400 119.432,286.400 119.605 C 286.400 119.778,285.643 120.314,284.717 120.796 C 283.792 121.279,282.847 121.913,282.617 122.206 C 282.388 122.499,281.642 123.068,280.960 123.470 C 279.345 124.421,277.865 125.431,275.364 127.288 C 274.244 128.120,273.125 128.800,272.878 128.800 C 272.630 128.800,272.235 129.160,272.000 129.600 C 271.765 130.040,271.334 130.400,271.044 130.400 C 270.754 130.400,270.060 130.823,269.502 131.340 C 268.944 131.857,267.793 132.701,266.944 133.215 C 266.095 133.728,264.970 134.565,264.445 135.074 C 263.920 135.583,263.256 136.000,262.968 136.000 C 262.681 136.000,262.210 136.315,261.923 136.700 C 261.635 137.085,260.926 137.644,260.346 137.943 C 259.766 138.242,258.596 139.093,257.746 139.835 C 256.896 140.578,255.969 141.188,255.687 141.192 C 255.406 141.197,255.068 141.478,254.938 141.817 C 254.808 142.156,254.026 142.779,253.200 143.200 C 252.374 143.621,251.592 144.244,251.462 144.583 C 251.332 144.922,251.013 145.200,250.754 145.200 C 250.495 145.200,249.544 145.792,248.641 146.514 C 247.739 147.237,246.493 148.149,245.873 148.541 C 244.723 149.269,244.102 149.763,242.227 151.445 C 241.642 151.970,241.020 152.400,240.844 152.400 C 240.668 152.400,240.198 152.760,239.800 153.200 C 239.402 153.640,238.932 154.000,238.756 154.000 C 238.580 154.000,237.997 154.405,237.461 154.900 C 236.924 155.395,235.638 156.430,234.603 157.200 C 232.226 158.968,230.524 160.352,229.313 161.500 C 228.791 161.995,228.220 162.400,228.044 162.400 C 227.868 162.400,227.398 162.760,227.000 163.200 C 226.602 163.640,226.105 164.000,225.896 164.000 C 225.686 164.000,225.161 164.450,224.729 165.000 C 224.296 165.550,223.689 166.000,223.380 166.000 C 223.071 166.000,222.524 166.450,222.163 167.000 C 221.803 167.550,221.306 168.000,221.058 168.000 C 220.811 168.000,220.157 168.434,219.604 168.964 C 217.113 171.354,215.919 172.401,215.669 172.411 C 215.521 172.417,214.500 173.225,213.400 174.207 C 211.227 176.147,210.757 176.312,210.000 175.400 C 209.726 175.070,209.350 174.800,209.165 174.800 C 208.980 174.800,208.417 174.430,207.914 173.977 C 205.175 171.512,203.748 170.404,203.314 170.402 C 203.047 170.401,202.635 170.040,202.400 169.600 C 202.165 169.160,201.783 168.800,201.552 168.800 C 201.321 168.800,200.113 168.015,198.866 167.056 C 197.620 166.096,196.285 165.202,195.900 165.068 C 195.515 164.934,195.200 164.644,195.200 164.423 C 195.200 164.202,194.677 163.750,194.038 163.420 C 193.399 163.089,192.629 162.589,192.327 162.309 C 191.352 161.405,189.243 160.000,188.859 160.000 C 188.654 160.000,188.393 159.758,188.280 159.463 C 188.166 159.168,187.427 158.619,186.637 158.244 C 185.847 157.869,185.200 157.404,185.200 157.211 C 185.200 156.893,184.364 156.376,181.703 155.048 C 181.210 154.801,180.805 154.480,180.803 154.333 C 180.801 154.186,180.125 153.655,179.300 153.155 C 178.475 152.654,177.656 152.009,177.480 151.722 C 177.304 151.435,176.991 151.200,176.784 151.200 C 176.455 151.200,172.485 148.656,170.200 146.981 C 168.042 145.399,163.949 142.800,163.616 142.800 C 163.409 142.800,163.096 142.561,162.920 142.269 C 162.744 141.977,161.791 141.302,160.802 140.769 C 159.813 140.236,158.670 139.499,158.260 139.131 C 157.851 138.763,156.995 138.246,156.358 137.983 C 155.721 137.719,155.200 137.357,155.200 137.180 C 155.200 137.002,154.355 136.438,153.321 135.928 C 152.288 135.418,151.002 134.595,150.463 134.100 C 149.924 133.605,149.239 133.200,148.942 133.200 C 148.644 133.200,148.071 132.871,147.669 132.469 C 147.267 132.067,146.097 131.331,145.069 130.833 C 144.041 130.336,143.200 129.785,143.200 129.610 C 143.200 129.435,142.558 128.987,141.774 128.614 C 140.990 128.242,139.568 127.412,138.616 126.769 C 137.663 126.126,136.707 125.600,136.491 125.600 C 136.275 125.600,135.867 125.322,135.584 124.981 C 135.302 124.641,134.110 123.908,132.935 123.352 C 131.761 122.796,130.800 122.219,130.800 122.069 C 130.800 121.918,129.866 121.367,128.725 120.843 C 127.584 120.320,126.332 119.595,125.943 119.233 C 123.874 117.306,120.556 117.582,121.094 119.636 C 121.200 120.045,120.839 121.149,120.290 122.090 C 119.740 123.030,118.933 124.430,118.495 125.200 C 118.056 125.970,117.024 127.770,116.200 129.200 C 115.376 130.630,114.247 132.610,113.691 133.600 C 113.136 134.590,111.966 136.660,111.091 138.200 C 110.216 139.740,109.042 141.810,108.482 142.800 C 107.923 143.790,107.146 145.125,106.756 145.766 L 106.048 146.933 109.124 148.724 C 110.816 149.709,112.830 150.912,113.600 151.397 C 114.370 151.882,116.530 153.180,118.400 154.282 C 127.134 159.426,145.140 171.025,158.200 179.919 C 162.714 182.993,164.911 184.516,171.000 188.790 C 172.522 189.859,178.918 194.501,182.691 197.275 C 184.280 198.444,185.585 199.504,185.591 199.630 C 185.610 200.095,183.777 201.535,183.000 201.665 C 181.661 201.891,158.899 224.499,144.200 240.204 C 142.220 242.319,139.565 245.131,138.300 246.452 C 137.035 247.774,136.000 248.993,136.000 249.163 C 136.000 249.333,135.415 250.013,134.700 250.674 C 133.985 251.335,132.875 252.489,132.234 253.238 C 131.045 254.627,128.649 257.326,126.049 260.205 C 125.252 261.087,123.700 262.876,122.600 264.180 C 121.500 265.483,120.105 267.038,119.500 267.635 C 118.895 268.232,118.400 268.913,118.400 269.149 C 118.400 269.384,117.860 269.975,117.200 270.463 C 116.540 270.951,116.000 271.565,116.000 271.826 C 116.000 272.088,115.730 272.526,115.400 272.800 C 114.288 273.723,115.539 276.580,116.732 275.842 C 117.083 275.625,122.635 279.834,128.000 284.384 C 138.189 293.026,141.305 295.240,141.880 294.247 C 142.768 292.714,156.014 277.458,162.413 270.600 C 163.439 269.500,165.431 267.355,166.840 265.833 C 174.418 257.643,177.277 254.696,189.386 242.591 C 201.338 230.644,211.187 221.164,211.924 220.899 C 212.414 220.723,221.277 228.627,230.198 237.197 C 241.375 247.933,251.705 258.607,260.204 268.200 C 262.153 270.400,263.954 272.380,264.205 272.600 C 264.805 273.125,270.827 280.179,275.744 286.117 L 279.649 290.834 282.125 288.896 C 283.486 287.830,285.860 285.991,287.400 284.808 C 288.940 283.625,291.460 281.646,293.000 280.411 C 294.540 279.175,296.273 277.812,296.851 277.382 C 297.429 276.952,299.270 275.552,300.942 274.271 C 302.614 272.990,304.168 272.057,304.394 272.196 C 304.620 272.336,304.914 272.169,305.046 271.825 C 305.178 271.481,305.536 271.200,305.843 271.200 C 306.693 271.200,306.507 269.839,305.500 268.689 C 304.660 267.730,304.132 267.099,301.000 263.312 C 300.340 262.514,299.305 261.338,298.700 260.699 C 298.095 260.061,297.600 259.388,297.600 259.205 C 297.600 259.021,297.060 258.417,296.400 257.861 C 295.740 257.306,295.200 256.724,295.200 256.567 C 295.200 256.284,292.750 253.474,290.161 250.788 C 289.413 250.011,288.800 249.250,288.800 249.096 C 288.800 248.943,287.810 247.843,286.600 246.652 C 285.390 245.461,284.400 244.339,284.400 244.159 C 284.400 243.979,283.320 242.813,282.000 241.569 C 280.680 240.324,279.600 239.174,279.600 239.012 C 279.600 238.512,254.415 212.813,253.917 212.805 C 253.762 212.802,252.038 211.180,250.086 209.200 C 248.134 207.220,246.387 205.600,246.203 205.600 C 246.020 205.600,244.864 204.543,243.635 203.251 C 242.406 201.959,240.950 200.763,240.400 200.593 C 239.131 200.201,237.626 199.121,237.622 198.600 C 237.620 198.229,242.845 193.964,254.602 184.743 C 260.023 180.492,277.625 167.309,281.230 164.800 C 282.020 164.250,286.252 161.264,290.634 158.165 C 310.933 143.806,334.683 128.104,354.400 116.006 C 362.723 110.898,363.600 110.334,363.600 110.082 C 363.600 109.954,362.847 108.577,361.927 107.024 C 359.397 102.753,356.020 97.058,353.374 92.600 C 352.068 90.400,350.910 88.420,350.800 88.200 C 350.690 87.980,350.087 86.943,349.459 85.895 C 348.832 84.847,348.415 83.737,348.534 83.427 C 349.056 82.069,347.064 80.900,345.386 81.581 " stroke="none" fill="#fc0404" fill-rule="evenodd"></path><path id="path1" d="M186.017 66.420 C 171.403 67.816,155.212 72.240,142.099 78.421 C 140.723 79.070,139.531 79.600,139.449 79.600 C 139.139 79.600,130.053 84.707,128.891 85.535 C 128.223 86.011,127.575 86.400,127.450 86.400 C 127.208 86.400,122.438 89.639,119.800 91.595 C 118.920 92.247,117.525 93.259,116.700 93.844 C 115.875 94.428,115.200 95.033,115.200 95.189 C 115.200 95.344,114.761 95.672,114.225 95.916 C 113.688 96.160,113.046 96.774,112.798 97.280 L 112.346 98.200 113.073 97.348 C 113.473 96.880,114.000 96.430,114.244 96.348 C 114.489 96.267,115.299 95.719,116.044 95.131 C 119.099 92.721,121.205 91.218,122.369 90.616 C 123.046 90.266,123.600 89.804,123.600 89.590 C 123.600 89.375,123.825 89.197,124.100 89.192 C 124.375 89.188,125.500 88.614,126.600 87.917 C 129.640 85.991,131.582 84.900,134.000 83.760 C 135.210 83.189,136.290 82.595,136.400 82.440 C 136.510 82.285,137.590 81.745,138.800 81.240 C 140.010 80.736,141.392 80.075,141.872 79.771 C 142.352 79.467,143.882 78.828,145.272 78.350 C 146.662 77.872,147.890 77.362,148.000 77.216 C 148.110 77.070,149.280 76.622,150.600 76.222 C 151.920 75.822,153.720 75.178,154.600 74.791 C 155.480 74.404,157.550 73.766,159.200 73.374 C 160.850 72.982,162.290 72.538,162.400 72.387 C 162.628 72.073,170.952 70.395,172.267 70.398 C 172.743 70.399,173.193 70.234,173.267 70.031 C 174.111 67.693,221.057 67.706,221.933 70.044 C 222.007 70.240,222.367 70.399,222.733 70.398 C 223.910 70.395,232.193 72.101,232.400 72.390 C 232.510 72.543,234.216 73.070,236.191 73.560 C 238.166 74.051,239.966 74.604,240.191 74.789 C 240.416 74.973,241.680 75.433,243.000 75.811 C 244.320 76.189,246.517 77.016,247.883 77.649 C 249.249 78.282,250.578 78.800,250.836 78.800 C 251.094 78.800,251.867 79.146,252.553 79.569 C 253.239 79.993,254.871 80.739,256.179 81.228 C 257.488 81.717,258.748 82.279,258.979 82.477 C 259.639 83.040,265.610 86.349,266.447 86.615 C 266.861 86.746,267.200 86.986,267.200 87.148 C 267.200 87.310,268.097 87.883,269.194 88.421 C 270.290 88.960,271.190 89.531,271.194 89.692 C 271.197 89.852,271.875 90.330,272.700 90.753 C 273.525 91.177,274.722 91.975,275.361 92.526 C 275.999 93.078,276.989 93.771,277.561 94.065 C 278.132 94.359,278.928 95.005,279.329 95.500 C 279.730 95.995,280.321 96.400,280.642 96.400 C 280.963 96.400,281.331 96.677,281.461 97.015 C 281.591 97.353,282.170 97.879,282.748 98.184 C 283.327 98.488,284.880 99.742,286.200 100.969 C 287.520 102.196,288.875 103.200,289.211 103.200 C 289.754 103.200,291.452 101.645,291.129 101.444 C 291.058 101.400,289.650 100.185,288.000 98.745 C 260.699 74.917,222.806 62.906,186.017 66.420 M348.800 83.420 C 348.800 83.747,350.025 86.055,350.806 87.200 C 351.181 87.750,352.262 89.550,353.207 91.200 C 354.152 92.850,355.318 94.830,355.798 95.600 C 357.076 97.651,361.657 105.426,363.206 108.176 C 363.943 109.482,364.365 110.612,364.144 110.685 C 363.757 110.814,352.932 117.430,348.400 120.307 C 347.190 121.075,345.570 122.100,344.800 122.585 C 344.030 123.070,342.320 124.161,341.000 125.009 C 339.680 125.857,337.970 126.946,337.200 127.429 C 316.894 140.165,281.313 164.868,263.341 178.706 C 261.988 179.748,259.226 181.860,257.204 183.400 C 253.814 185.980,248.991 189.787,241.095 196.112 L 237.990 198.600 239.095 199.498 C 240.476 200.620,240.427 200.624,241.934 199.300 C 243.396 198.016,244.108 197.436,249.200 193.389 C 251.290 191.728,253.355 190.060,253.789 189.684 C 254.222 189.308,255.032 188.692,255.589 188.316 C 256.698 187.565,258.279 186.293,259.833 184.900 C 260.385 184.405,260.925 184.000,261.033 184.000 C 261.279 184.000,266.281 180.176,267.082 179.375 C 267.408 179.049,268.177 178.522,268.789 178.205 C 269.402 177.889,270.009 177.353,270.139 177.015 C 270.269 176.677,270.560 176.400,270.786 176.400 C 271.222 176.400,275.661 173.336,276.985 172.120 C 277.416 171.724,277.976 171.310,278.228 171.200 C 278.480 171.090,279.206 170.600,279.843 170.110 C 280.479 169.621,281.904 168.524,283.008 167.673 C 284.113 166.822,285.463 165.893,286.008 165.608 C 286.554 165.323,287.270 164.843,287.600 164.542 C 288.905 163.352,293.134 160.400,293.535 160.400 C 293.769 160.400,294.104 160.165,294.280 159.878 C 294.456 159.591,295.275 158.946,296.100 158.445 C 296.925 157.945,297.600 157.369,297.600 157.167 C 297.600 156.965,297.825 156.799,298.100 156.798 C 298.375 156.797,299.549 156.077,300.708 155.198 C 301.868 154.319,302.966 153.600,303.150 153.600 C 303.333 153.600,303.969 153.150,304.562 152.600 C 305.156 152.050,305.729 151.600,305.837 151.600 C 306.074 151.600,308.372 149.991,309.108 149.310 C 309.399 149.040,310.259 148.525,311.019 148.164 C 311.778 147.804,312.400 147.362,312.400 147.182 C 312.400 147.003,313.210 146.452,314.200 145.957 C 315.190 145.463,316.000 144.939,316.000 144.793 C 316.000 144.647,316.900 144.037,318.000 143.439 C 319.100 142.840,320.000 142.181,320.000 141.975 C 320.000 141.769,320.188 141.600,320.418 141.600 C 320.814 141.600,325.484 138.631,326.834 137.521 C 327.182 137.235,327.857 136.775,328.334 136.500 C 328.810 136.225,329.590 135.775,330.066 135.500 C 330.543 135.225,331.263 134.685,331.666 134.300 C 332.070 133.915,332.644 133.600,332.942 133.600 C 333.239 133.600,333.921 133.195,334.455 132.700 C 334.990 132.205,336.276 131.350,337.314 130.801 C 338.351 130.251,339.200 129.682,339.200 129.536 C 339.200 129.391,340.010 128.879,341.000 128.400 C 341.990 127.921,342.800 127.397,342.800 127.235 C 342.800 127.074,343.655 126.520,344.700 126.004 C 345.745 125.489,346.744 124.827,346.920 124.533 C 347.096 124.240,347.434 124.000,347.671 124.000 C 347.909 124.000,349.158 123.280,350.447 122.400 C 351.736 121.520,352.973 120.800,353.195 120.800 C 353.418 120.800,353.923 120.485,354.317 120.100 C 354.712 119.715,355.837 118.960,356.817 118.422 C 357.798 117.885,358.838 117.210,359.129 116.922 C 359.419 116.635,359.843 116.400,360.071 116.400 C 360.298 116.400,361.284 115.860,362.263 115.200 C 363.241 114.539,364.572 113.725,365.221 113.389 C 366.566 112.694,366.753 111.559,365.700 110.488 C 365.315 110.097,364.584 108.931,364.076 107.897 C 363.569 106.864,362.999 105.923,362.811 105.807 C 362.623 105.691,362.061 104.742,361.562 103.698 C 361.063 102.654,360.531 101.710,360.380 101.600 C 360.229 101.490,359.619 100.500,359.026 99.400 C 357.389 96.365,355.706 93.447,355.334 92.998 C 355.150 92.776,354.560 91.786,354.022 90.798 C 353.485 89.809,352.810 88.762,352.522 88.471 C 352.235 88.181,352.000 87.765,352.000 87.547 C 352.000 86.990,349.478 83.200,349.106 83.200 C 348.938 83.200,348.800 83.299,348.800 83.420 M109.170 100.253 C 108.245 101.256,108.241 101.280,109.092 100.761 C 109.583 100.462,110.072 99.988,110.180 99.709 C 110.466 98.962,110.252 99.077,109.170 100.253 M89.400 103.906 C 88.366 104.666,87.757 105.755,88.692 105.173 C 89.183 104.867,89.672 104.388,89.780 104.109 C 90.003 103.525,89.954 103.499,89.400 103.906 M86.022 107.700 C 85.352 108.415,84.803 109.154,84.802 109.342 C 84.801 109.531,84.350 110.039,83.800 110.471 C 83.250 110.904,82.800 111.506,82.800 111.809 C 82.800 112.112,82.498 112.529,82.130 112.735 C 81.761 112.942,80.964 113.806,80.358 114.655 C 77.336 118.893,75.200 122.050,75.200 122.278 C 75.200 122.418,74.924 122.818,74.588 123.166 C 73.658 124.128,70.740 128.853,70.305 130.099 C 70.094 130.705,69.782 131.200,69.610 131.200 C 69.439 131.200,68.894 132.145,68.399 133.300 C 67.904 134.455,67.362 135.490,67.195 135.600 C 67.027 135.710,66.399 136.970,65.800 138.400 C 65.201 139.830,64.590 141.090,64.444 141.200 C 64.298 141.310,63.847 142.210,63.443 143.200 C 63.039 144.190,62.310 145.900,61.823 147.000 C 61.336 148.100,60.689 149.810,60.385 150.800 C 60.082 151.790,59.711 152.690,59.562 152.800 C 59.192 153.072,57.600 158.299,57.600 159.242 C 57.600 159.659,57.435 160.000,57.233 160.000 C 57.031 160.000,56.483 161.755,56.016 163.900 C 55.548 166.045,54.990 168.118,54.775 168.508 C 54.348 169.281,53.024 176.660,52.570 180.800 C 52.413 182.230,52.155 183.490,51.995 183.600 C 50.537 184.608,50.533 222.530,51.991 223.600 C 52.141 223.710,52.480 225.589,52.744 227.776 C 53.287 232.274,54.254 237.407,54.782 238.600 C 54.977 239.040,55.536 241.110,56.024 243.200 C 56.512 245.290,57.046 247.180,57.211 247.400 C 57.376 247.620,57.886 249.136,58.344 250.769 C 58.803 252.403,59.320 253.843,59.495 253.969 C 59.669 254.096,60.237 255.550,60.757 257.200 C 61.277 258.850,61.826 260.290,61.977 260.400 C 62.127 260.510,62.666 261.725,63.174 263.100 C 63.682 264.475,64.256 265.600,64.449 265.600 C 64.642 265.600,64.810 265.915,64.823 266.300 C 64.836 266.685,65.364 267.990,65.997 269.200 C 66.630 270.410,67.621 272.342,68.200 273.492 C 68.778 274.643,69.419 275.688,69.625 275.815 C 69.830 275.942,70.380 276.935,70.848 278.023 C 71.316 279.110,71.837 280.000,72.005 280.000 C 72.174 280.000,72.693 280.810,73.158 281.800 C 73.623 282.790,74.183 283.600,74.402 283.600 C 74.621 283.600,74.801 283.825,74.802 284.100 C 74.803 284.375,75.523 285.549,76.402 286.708 C 77.281 287.868,78.000 288.954,78.000 289.122 C 78.000 289.464,79.625 291.518,81.300 293.295 C 81.905 293.937,82.400 294.563,82.400 294.688 C 82.400 294.884,84.321 297.252,86.987 300.342 C 88.969 302.640,99.225 312.788,101.396 314.600 C 102.714 315.700,104.334 317.094,104.996 317.698 C 105.658 318.302,106.425 318.797,106.700 318.798 C 106.975 318.799,107.200 318.978,107.200 319.195 C 107.200 319.412,107.875 320.044,108.700 320.600 C 109.525 321.156,111.550 322.589,113.200 323.787 C 114.850 324.984,116.416 325.971,116.680 325.982 C 116.944 325.992,117.304 326.246,117.480 326.546 C 117.656 326.846,118.376 327.386,119.079 327.745 C 119.783 328.105,121.159 328.939,122.137 329.600 C 123.116 330.260,124.102 330.800,124.329 330.800 C 124.557 330.800,124.981 331.036,125.271 331.324 C 125.562 331.613,126.790 332.344,128.000 332.950 C 129.210 333.555,130.470 334.218,130.800 334.423 C 131.746 335.009,139.171 338.400,139.508 338.400 C 139.675 338.400,140.441 338.737,141.210 339.149 C 141.979 339.561,143.686 340.231,145.004 340.638 C 146.322 341.045,147.490 341.485,147.600 341.616 C 147.710 341.746,149.330 342.279,151.200 342.800 C 153.070 343.321,154.690 343.876,154.800 344.034 C 154.910 344.192,156.890 344.721,159.200 345.210 C 161.510 345.699,163.593 346.252,163.829 346.439 C 164.331 346.838,172.866 348.241,177.200 348.638 C 178.850 348.789,180.328 349.112,180.485 349.356 C 180.891 349.986,213.650 349.981,214.439 349.351 C 214.747 349.104,216.350 348.774,218.000 348.618 C 222.867 348.156,230.589 346.802,230.733 346.386 C 230.807 346.174,231.234 346.000,231.684 346.000 C 232.821 346.000,239.756 344.354,240.000 344.027 C 240.110 343.879,241.724 343.356,243.586 342.864 C 245.448 342.372,247.068 341.833,247.186 341.666 C 247.304 341.498,248.547 341.020,249.950 340.602 C 251.352 340.185,252.702 339.651,252.950 339.417 C 253.197 339.183,254.660 338.561,256.200 338.036 C 257.740 337.510,259.270 336.864,259.600 336.600 C 259.930 336.336,261.235 335.699,262.500 335.186 C 263.765 334.673,264.800 334.139,264.800 334.000 C 264.800 333.861,265.790 333.337,267.000 332.835 C 268.210 332.334,269.200 331.778,269.200 331.601 C 269.200 331.423,269.695 331.106,270.301 330.895 C 270.906 330.683,272.571 329.764,274.001 328.851 C 275.430 327.937,276.870 327.018,277.200 326.807 C 277.530 326.596,278.700 325.790,279.800 325.016 C 280.900 324.243,282.453 323.255,283.251 322.822 C 284.049 322.389,284.808 321.756,284.938 321.417 C 285.068 321.078,285.437 320.800,285.758 320.800 C 286.079 320.800,286.696 320.350,287.129 319.800 C 287.561 319.250,288.069 318.798,288.258 318.796 C 288.446 318.793,289.512 317.938,290.626 316.896 C 291.741 315.853,292.269 315.315,291.801 315.700 C 291.332 316.085,290.735 316.400,290.474 316.400 C 290.213 316.400,290.000 316.568,290.000 316.774 C 290.000 316.979,289.235 317.687,288.300 318.346 C 284.964 320.699,276.589 326.288,276.000 326.554 C 275.670 326.703,274.410 327.439,273.200 328.189 C 263.938 333.930,246.833 340.983,235.797 343.611 C 227.077 345.688,224.443 346.160,214.600 347.413 C 208.680 348.166,190.120 348.166,184.200 347.413 C 177.538 346.565,172.089 345.712,169.200 345.064 C 162.582 343.581,157.982 342.419,157.313 342.060 C 156.911 341.845,155.464 341.379,154.099 341.026 C 151.024 340.229,140.672 336.179,137.600 334.571 C 137.050 334.283,134.714 333.115,132.408 331.976 C 109.315 320.567,88.471 301.175,73.957 277.596 C 73.210 276.384,72.376 275.034,72.103 274.596 C 70.672 272.304,67.847 266.591,63.996 258.200 C 62.473 254.882,58.745 243.824,57.561 239.112 C 57.104 237.290,56.482 234.810,56.180 233.600 C 55.878 232.390,55.344 229.600,54.994 227.400 C 54.644 225.200,54.063 221.690,53.702 219.600 C 52.899 214.941,52.737 190.105,53.478 185.200 C 54.371 179.283,56.394 167.933,56.621 167.565 C 56.749 167.360,57.292 165.348,57.830 163.096 C 58.367 160.843,58.972 158.640,59.173 158.200 C 59.374 157.760,59.988 156.050,60.538 154.400 C 61.968 150.108,63.504 146.056,64.414 144.174 C 64.846 143.279,65.200 142.419,65.200 142.262 C 65.200 141.699,71.284 129.797,71.638 129.667 C 71.837 129.593,72.001 129.323,72.003 129.067 C 72.004 128.810,72.769 127.390,73.703 125.911 C 74.636 124.432,76.197 121.957,77.172 120.411 C 78.146 118.865,79.058 117.600,79.198 117.600 C 79.338 117.600,79.742 116.991,80.097 116.247 C 80.452 115.502,81.296 114.263,81.971 113.494 C 82.647 112.724,83.200 111.914,83.200 111.693 C 83.200 111.473,83.650 110.997,84.200 110.637 C 84.750 110.276,85.200 109.769,85.200 109.510 C 85.200 109.250,85.775 108.445,86.478 107.719 C 87.182 106.994,87.641 106.400,87.499 106.400 C 87.357 106.400,86.692 106.985,86.022 107.700 M120.000 119.751 C 120.000 120.054,119.739 120.519,119.420 120.783 C 119.101 121.048,118.438 122.105,117.948 123.132 C 117.457 124.160,116.931 125.090,116.780 125.200 C 116.629 125.310,116.025 126.300,115.438 127.400 C 114.851 128.500,113.757 130.480,113.008 131.800 C 112.258 133.120,111.161 135.100,110.570 136.200 C 109.979 137.300,109.369 138.290,109.215 138.400 C 109.061 138.510,108.500 139.500,107.968 140.600 C 107.436 141.700,106.775 142.838,106.500 143.129 C 106.225 143.419,106.000 143.822,106.000 144.023 C 106.000 144.224,105.460 145.266,104.800 146.338 C 103.163 148.999,103.248 149.409,105.700 150.646 C 106.855 151.228,107.890 151.838,108.000 152.000 C 108.110 152.162,109.100 152.775,110.200 153.362 C 112.496 154.588,114.145 155.572,117.068 157.463 C 118.205 158.198,119.308 158.800,119.519 158.800 C 119.730 158.800,120.124 159.067,120.395 159.394 C 120.666 159.720,121.723 160.395,122.744 160.894 C 123.765 161.392,124.662 161.940,124.737 162.111 C 124.812 162.282,125.532 162.758,126.337 163.169 C 127.142 163.580,128.790 164.571,130.000 165.371 C 131.210 166.171,132.470 166.991,132.800 167.195 C 133.130 167.398,134.617 168.382,136.104 169.382 C 137.591 170.382,138.958 171.200,139.142 171.200 C 139.326 171.200,139.802 171.560,140.200 172.000 C 140.598 172.440,141.074 172.800,141.258 172.800 C 141.586 172.800,146.385 175.877,147.634 176.887 C 147.982 177.169,148.612 177.597,149.034 177.838 C 151.190 179.069,151.795 179.474,152.715 180.300 C 153.266 180.795,153.954 181.200,154.244 181.200 C 154.534 181.200,154.965 181.560,155.200 182.000 C 155.435 182.440,155.824 182.800,156.063 182.800 C 156.303 182.800,157.634 183.610,159.021 184.600 C 160.408 185.590,161.693 186.400,161.875 186.400 C 162.058 186.400,162.432 186.760,162.707 187.200 C 162.982 187.640,163.430 188.002,163.703 188.004 C 163.977 188.006,165.010 188.655,166.000 189.446 C 166.990 190.237,168.205 191.041,168.700 191.233 C 169.195 191.424,169.600 191.760,169.600 191.980 C 169.600 192.200,170.170 192.674,170.866 193.034 C 171.562 193.394,173.621 194.839,175.443 196.244 C 177.264 197.650,178.938 198.800,179.163 198.800 C 179.388 198.800,179.765 199.160,180.000 199.600 C 180.235 200.040,180.633 200.400,180.883 200.400 C 181.133 200.400,181.645 200.679,182.023 201.020 C 182.647 201.585,182.810 201.553,183.854 200.654 C 184.484 200.112,184.910 199.599,184.800 199.514 C 184.690 199.429,182.800 198.034,180.600 196.414 C 178.400 194.794,175.970 192.997,175.200 192.422 C 174.430 191.847,173.350 191.072,172.800 190.699 C 172.250 190.327,170.900 189.377,169.800 188.589 C 168.700 187.801,167.170 186.724,166.400 186.198 C 165.630 185.671,163.290 184.050,161.200 182.596 C 155.008 178.288,136.494 166.068,130.400 162.267 C 128.750 161.238,127.130 160.218,126.800 160.001 C 126.470 159.784,124.220 158.409,121.800 156.946 C 119.380 155.483,115.690 153.236,113.600 151.952 C 111.510 150.668,108.958 149.167,107.928 148.617 C 105.360 147.242,105.354 147.203,107.252 143.914 C 108.177 142.311,109.941 139.200,111.171 137.000 C 112.401 134.800,113.692 132.550,114.039 132.000 C 118.016 125.698,121.245 119.200,120.400 119.200 C 120.180 119.200,120.000 119.448,120.000 119.751 M324.100 151.212 C 323.605 151.411,323.205 151.715,323.210 151.887 C 323.231 152.511,325.180 158.095,325.533 158.541 C 325.732 158.794,326.313 160.620,326.823 162.600 C 327.334 164.580,327.860 166.290,327.992 166.400 C 328.238 166.604,329.354 171.305,329.844 174.200 C 329.993 175.080,330.245 175.890,330.402 176.000 C 330.779 176.262,331.933 184.395,332.261 189.100 C 332.403 191.135,332.673 192.800,332.860 192.800 C 333.304 192.800,333.305 213.888,332.860 214.163 C 332.674 214.278,332.412 215.913,332.279 217.795 C 331.982 222.011,330.779 230.528,330.442 230.800 C 330.306 230.910,329.781 233.064,329.275 235.586 C 328.769 238.109,328.214 240.359,328.042 240.586 C 327.870 240.814,327.311 242.530,326.800 244.400 C 326.289 246.270,325.744 247.980,325.589 248.200 C 325.434 248.420,324.806 250.130,324.194 252.000 C 323.582 253.870,322.954 255.490,322.800 255.600 C 322.645 255.710,322.119 256.878,321.630 258.195 C 321.140 259.512,320.609 260.682,320.449 260.795 C 320.289 260.908,319.740 261.990,319.229 263.200 C 318.718 264.410,318.182 265.490,318.039 265.600 C 317.895 265.710,317.435 266.610,317.015 267.600 C 316.595 268.590,315.925 269.772,315.526 270.226 C 315.127 270.680,314.800 271.238,314.800 271.466 C 314.800 271.694,314.275 272.605,313.633 273.490 C 312.992 274.376,312.088 275.843,311.625 276.750 C 311.162 277.658,310.651 278.400,310.490 278.400 C 310.328 278.400,309.974 278.895,309.703 279.500 C 309.433 280.105,308.742 281.140,308.168 281.800 C 307.594 282.460,306.867 283.495,306.552 284.100 C 306.237 284.705,305.847 285.200,305.684 285.200 C 305.522 285.200,304.944 285.920,304.400 286.800 C 303.856 287.680,303.307 288.400,303.181 288.400 C 303.054 288.400,302.526 288.985,302.007 289.700 L 301.064 291.000 302.032 290.200 C 302.564 289.760,303.153 289.159,303.340 288.864 C 303.527 288.569,304.112 287.849,304.639 287.264 C 305.456 286.356,309.509 281.018,312.200 277.304 C 316.605 271.225,323.263 258.385,326.461 249.800 C 337.199 220.976,338.052 189.248,328.865 160.400 C 327.210 155.203,325.544 150.795,325.247 150.825 C 325.111 150.839,324.595 151.013,324.100 151.212 M210.400 222.627 C 209.850 223.179,201.296 231.679,191.391 241.515 C 181.486 251.352,172.143 260.750,170.628 262.400 C 169.114 264.050,167.045 266.300,166.031 267.400 C 165.017 268.500,162.570 271.190,160.594 273.379 C 158.617 275.567,156.730 277.637,156.400 277.979 C 156.070 278.321,152.508 282.425,148.486 287.100 C 140.861 295.960,140.916 295.908,139.983 295.100 C 139.666 294.825,139.931 295.183,140.574 295.895 C 142.209 297.711,143.111 297.909,144.150 296.683 C 144.618 296.131,145.720 294.820,146.600 293.769 C 147.480 292.718,148.689 291.304,149.286 290.629 C 149.883 289.953,150.847 288.834,151.428 288.143 C 152.010 287.451,153.051 286.260,153.743 285.496 C 154.434 284.732,155.747 283.228,156.661 282.154 C 157.575 281.079,158.835 279.644,159.461 278.965 C 160.087 278.285,161.770 276.434,163.200 274.851 C 164.630 273.268,166.835 270.944,168.100 269.687 C 169.365 268.429,170.400 267.255,170.400 267.076 C 170.400 266.143,211.200 225.600,212.139 225.600 C 212.415 225.600,213.455 226.365,214.449 227.300 C 215.444 228.235,217.463 230.080,218.937 231.400 C 229.607 240.955,247.537 259.091,258.056 270.969 C 259.015 272.051,260.655 273.831,261.700 274.923 C 262.745 276.015,263.601 277.019,263.602 277.154 C 263.603 277.289,264.425 278.300,265.429 279.400 C 266.432 280.500,267.826 282.085,268.527 282.923 C 269.227 283.761,270.295 284.926,270.900 285.512 C 271.505 286.099,272.000 286.756,272.000 286.974 C 272.000 287.192,272.448 287.827,272.996 288.385 C 274.817 290.240,275.977 291.609,276.405 292.409 C 276.999 293.519,278.436 293.393,279.909 292.100 C 280.598 291.495,282.814 289.740,284.832 288.200 C 286.851 286.660,288.905 284.995,289.397 284.500 C 289.889 284.005,290.409 283.600,290.552 283.600 C 290.694 283.600,291.844 282.771,293.106 281.758 C 294.368 280.746,296.006 279.441,296.748 278.858 C 297.489 278.276,298.569 277.377,299.148 276.860 C 299.726 276.343,300.695 275.663,301.300 275.349 C 301.905 275.036,302.400 274.610,302.400 274.403 C 302.400 274.195,302.895 273.757,303.500 273.429 C 304.105 273.101,304.392 272.825,304.138 272.816 C 303.884 272.807,302.960 273.385,302.085 274.100 C 301.210 274.815,299.552 276.120,298.400 277.000 C 295.506 279.211,293.184 281.027,292.000 282.005 C 291.450 282.460,289.380 284.071,287.400 285.587 C 285.420 287.102,283.440 288.684,283.000 289.103 C 282.560 289.521,281.602 290.209,280.872 290.632 L 279.543 291.400 278.272 289.962 C 277.572 289.171,275.380 286.562,273.400 284.165 C 257.606 265.042,238.246 244.963,216.600 225.252 C 212.247 221.289,211.886 221.136,210.400 222.627 M117.641 277.209 C 118.388 277.874,119.450 278.778,120.000 279.218 C 120.550 279.658,122.125 280.930,123.500 282.044 C 124.875 283.158,126.000 283.979,126.000 283.869 C 126.000 283.759,124.335 282.313,122.300 280.657 C 120.265 279.001,118.221 277.276,117.758 276.823 C 117.295 276.370,116.773 276.000,116.599 276.000 C 116.424 276.000,116.893 276.544,117.641 277.209 M126.675 284.258 C 126.435 284.498,128.500 286.400,129.000 286.400 C 129.157 286.400,129.639 286.850,130.071 287.400 C 130.504 287.950,131.063 288.400,131.314 288.400 C 131.565 288.400,132.197 288.895,132.718 289.500 L 133.666 290.600 132.806 289.300 C 132.333 288.585,131.692 288.000,131.382 288.000 C 131.072 288.000,130.524 287.550,130.163 287.000 C 129.803 286.450,129.272 286.000,128.983 286.000 C 128.694 286.000,128.109 285.556,127.682 285.014 C 127.255 284.471,126.802 284.131,126.675 284.258 M135.138 291.513 C 135.642 292.221,136.257 292.800,136.505 292.800 C 136.753 292.800,137.461 293.284,138.078 293.875 C 138.695 294.466,139.188 294.781,139.172 294.575 C 139.157 294.369,138.037 293.306,136.683 292.213 C 134.495 290.447,134.323 290.369,135.138 291.513 M299.606 292.594 C 298.863 293.361,298.332 294.050,298.427 294.125 C 298.522 294.200,299.206 293.573,299.946 292.731 C 301.629 290.818,301.412 290.731,299.606 292.594 " stroke="none" fill="#050404" fill-rule="evenodd"></path><path id="path2" d="M190.707 65.890 C 191.426 65.979,192.506 65.977,193.107 65.886 C 193.708 65.795,193.120 65.722,191.800 65.724 C 190.480 65.726,189.988 65.801,190.707 65.890 M205.907 65.890 C 206.626 65.979,207.706 65.977,208.307 65.886 C 208.908 65.795,208.320 65.722,207.000 65.724 C 205.680 65.726,205.188 65.801,205.907 65.890 M110.975 98.100 L 109.800 99.400 111.100 98.225 C 112.312 97.130,112.584 96.800,112.275 96.800 C 112.206 96.800,111.621 97.385,110.975 98.100 M91.429 101.829 C 90.649 102.609,90.630 102.840,91.369 102.557 C 91.682 102.436,92.036 102.082,92.157 101.769 C 92.440 101.030,92.209 101.049,91.429 101.829 M83.600 111.600 C 83.130 112.260,82.836 112.800,82.946 112.800 C 83.056 112.800,83.530 112.260,84.000 111.600 C 84.470 110.940,84.764 110.400,84.654 110.400 C 84.544 110.400,84.070 110.940,83.600 111.600 M53.301 189.800 C 53.305 190.680,53.387 190.993,53.483 190.495 C 53.579 189.998,53.575 189.278,53.475 188.895 C 53.375 188.513,53.296 188.920,53.301 189.800 M52.969 201.600 C 52.969 206.110,53.027 207.955,53.098 205.700 C 53.170 203.445,53.170 199.755,53.098 197.500 C 53.027 195.245,52.969 197.090,52.969 201.600 M335.293 195.200 C 335.293 195.970,335.375 196.285,335.476 195.900 C 335.576 195.515,335.576 194.885,335.476 194.500 C 335.375 194.115,335.293 194.430,335.293 195.200 M335.293 208.000 C 335.293 208.770,335.375 209.085,335.476 208.700 C 335.576 208.315,335.576 207.685,335.476 207.300 C 335.375 206.915,335.293 207.230,335.293 208.000 M53.301 213.400 C 53.305 214.280,53.387 214.593,53.483 214.095 C 53.579 213.598,53.575 212.878,53.475 212.495 C 53.375 212.113,53.296 212.520,53.301 213.400 M209.200 223.400 C 208.228 224.390,207.523 225.200,207.633 225.200 C 207.743 225.200,208.628 224.390,209.600 223.400 C 210.572 222.410,211.277 221.600,211.167 221.600 C 211.057 221.600,210.172 222.410,209.200 223.400 M218.800 226.925 C 218.800 226.994,219.385 227.579,220.100 228.225 L 221.400 229.400 220.225 228.100 C 219.130 226.888,218.800 226.616,218.800 226.925 M201.381 230.900 L 199.800 232.600 201.500 231.019 C 203.081 229.548,203.384 229.200,203.081 229.200 C 203.016 229.200,202.251 229.965,201.381 230.900 M234.200 241.600 C 236.171 243.580,237.873 245.200,237.983 245.200 C 238.093 245.200,236.571 243.580,234.600 241.600 C 232.629 239.620,230.927 238.000,230.817 238.000 C 230.707 238.000,232.229 239.620,234.200 241.600 M242.000 249.400 C 244.081 251.490,245.874 253.200,245.984 253.200 C 246.094 253.200,244.481 251.490,242.400 249.400 C 240.319 247.310,238.526 245.600,238.416 245.600 C 238.306 245.600,239.919 247.310,242.000 249.400 M177.178 255.100 L 175.800 256.600 177.300 255.222 C 178.696 253.938,178.984 253.600,178.678 253.600 C 178.612 253.600,177.937 254.275,177.178 255.100 M250.800 258.525 C 250.800 258.594,251.385 259.179,252.100 259.825 L 253.400 261.000 252.225 259.700 C 251.130 258.488,250.800 258.216,250.800 258.525 M169.781 262.900 L 168.200 264.600 169.900 263.019 C 171.481 261.548,171.784 261.200,171.481 261.200 C 171.416 261.200,170.651 261.965,169.781 262.900 M175.866 263.068 C 175.435 263.499,176.819 264.767,177.455 264.524 C 177.945 264.336,177.930 264.185,177.355 263.551 C 176.630 262.749,176.293 262.640,175.866 263.068 M130.000 286.525 C 130.000 286.624,130.661 287.209,131.468 287.825 C 132.276 288.441,132.811 288.741,132.656 288.491 C 132.340 287.979,130.000 286.247,130.000 286.525 M302.600 289.906 C 302.380 290.068,301.935 290.560,301.612 291.000 C 301.178 291.591,301.309 291.546,302.112 290.830 C 303.091 289.958,303.389 289.588,303.100 289.606 C 303.045 289.609,302.820 289.744,302.600 289.906 M95.600 305.000 C 97.460 306.870,99.072 308.400,99.182 308.400 C 99.292 308.400,97.860 306.870,96.000 305.000 C 94.140 303.130,92.528 301.600,92.418 301.600 C 92.308 301.600,93.740 303.130,95.600 305.000 M294.706 312.611 C 293.884 313.375,293.361 314.000,293.544 314.000 C 293.727 314.000,294.202 313.640,294.600 313.200 C 294.998 312.760,295.566 312.400,295.862 312.400 C 296.158 312.400,296.400 312.130,296.400 311.800 C 296.400 311.018,296.440 310.999,294.706 312.611 M186.705 347.483 C 187.202 347.579,187.922 347.575,188.305 347.475 C 188.687 347.375,188.280 347.296,187.400 347.301 C 186.520 347.305,186.207 347.387,186.705 347.483 M210.705 347.483 C 211.202 347.579,211.922 347.575,212.305 347.475 C 212.687 347.375,212.280 347.296,211.400 347.301 C 210.520 347.305,210.207 347.387,210.705 347.483 M195.322 347.899 C 197.699 347.970,201.479 347.969,203.722 347.898 C 205.965 347.827,204.020 347.769,199.400 347.769 C 194.780 347.770,192.945 347.828,195.322 347.899 " stroke="none" fill="#980404" fill-rule="evenodd"></path><path id="path3" d="M196.482 65.896 C 197.958 65.973,200.478 65.973,202.082 65.897 C 203.687 65.821,202.480 65.758,199.400 65.758 C 196.320 65.757,195.007 65.819,196.482 65.896 M187.505 66.283 C 188.002 66.379,188.722 66.375,189.105 66.275 C 189.487 66.175,189.080 66.096,188.200 66.101 C 187.320 66.105,187.007 66.187,187.505 66.283 M209.700 66.276 C 210.085 66.376,210.715 66.376,211.100 66.276 C 211.485 66.175,211.170 66.093,210.400 66.093 C 209.630 66.093,209.315 66.175,209.700 66.276 M234.200 70.400 C 234.640 70.589,235.270 70.744,235.600 70.744 C 235.978 70.744,235.904 70.617,235.400 70.400 C 234.960 70.211,234.330 70.056,234.000 70.056 C 233.622 70.056,233.696 70.183,234.200 70.400 M111.762 97.658 C 111.004 98.512,111.005 98.514,111.900 98.044 C 112.395 97.784,112.800 97.398,112.800 97.186 C 112.800 96.618,112.609 96.705,111.762 97.658 M288.400 98.925 C 288.400 98.994,288.985 99.579,289.700 100.225 L 291.000 101.400 289.825 100.100 C 288.730 98.888,288.400 98.616,288.400 98.925 M86.204 107.996 C 85.574 108.654,85.135 109.256,85.229 109.334 C 85.323 109.412,85.913 108.874,86.539 108.138 C 87.954 106.477,87.745 106.388,86.204 107.996 M81.944 113.500 C 80.675 115.032,80.219 115.742,80.681 115.465 C 81.193 115.158,82.969 112.800,82.689 112.800 C 82.598 112.800,82.263 113.115,81.944 113.500 M261.000 180.235 L 259.800 181.266 261.100 180.406 C 261.815 179.933,262.400 179.468,262.400 179.373 C 262.400 179.073,262.231 179.178,261.000 180.235 M53.693 184.000 C 53.693 184.770,53.775 185.085,53.876 184.700 C 53.976 184.315,53.976 183.685,53.876 183.300 C 53.775 182.915,53.693 183.230,53.693 184.000 M334.509 187.600 C 334.509 188.590,334.587 188.995,334.682 188.500 C 334.778 188.005,334.778 187.195,334.682 186.700 C 334.587 186.205,334.509 186.610,334.509 187.600 M335.357 201.600 C 335.357 204.570,335.420 205.785,335.497 204.300 C 335.574 202.815,335.574 200.385,335.497 198.900 C 335.420 197.415,335.357 198.630,335.357 201.600 M183.878 200.613 C 183.260 201.156,182.914 201.600,183.108 201.600 C 183.302 201.600,183.883 201.150,184.400 200.600 C 185.595 199.328,185.331 199.334,183.878 200.613 M334.893 212.000 C 334.893 212.770,334.975 213.085,335.076 212.700 C 335.176 212.315,335.176 211.685,335.076 211.300 C 334.975 210.915,334.893 211.230,334.893 212.000 M334.509 215.600 C 334.509 216.590,334.587 216.995,334.682 216.500 C 334.778 216.005,334.778 215.195,334.682 214.700 C 334.587 214.205,334.509 214.610,334.509 215.600 M53.293 216.000 C 53.293 216.770,53.375 217.085,53.476 216.700 C 53.576 216.315,53.576 215.685,53.476 215.300 C 53.375 214.915,53.293 215.230,53.293 216.000 M53.693 219.200 C 53.693 219.970,53.775 220.285,53.876 219.900 C 53.976 219.515,53.976 218.885,53.876 218.500 C 53.775 218.115,53.693 218.430,53.693 219.200 M212.800 221.725 C 212.800 221.794,213.385 222.379,214.100 223.025 L 215.400 224.200 214.225 222.900 C 213.130 221.688,212.800 221.416,212.800 221.725 M205.600 227.000 C 204.628 227.990,203.923 228.800,204.033 228.800 C 204.143 228.800,205.028 227.990,206.000 227.000 C 206.972 226.010,207.677 225.200,207.567 225.200 C 207.457 225.200,206.572 226.010,205.600 227.000 M217.600 226.125 C 217.600 226.194,218.185 226.779,218.900 227.425 L 220.200 228.600 219.025 227.300 C 217.930 226.088,217.600 225.816,217.600 226.125 M331.850 231.250 C 331.709 231.953,331.669 232.602,331.759 232.692 C 331.850 232.783,332.048 232.291,332.200 231.600 C 332.352 230.909,332.393 230.259,332.291 230.158 C 332.189 230.056,331.991 230.547,331.850 231.250 M228.400 236.200 C 229.595 237.410,230.663 238.400,230.773 238.400 C 230.883 238.400,229.995 237.410,228.800 236.200 C 227.605 234.990,226.537 234.000,226.427 234.000 C 226.317 234.000,227.205 234.990,228.400 236.200 M187.797 244.500 L 178.600 253.800 187.900 244.603 C 193.015 239.545,197.200 235.360,197.200 235.303 C 197.200 235.020,196.342 235.858,187.797 244.500 M248.200 256.000 C 249.506 257.320,250.665 258.400,250.775 258.400 C 250.885 258.400,249.906 257.320,248.600 256.000 C 247.294 254.680,246.135 253.600,246.025 253.600 C 245.915 253.600,246.894 254.680,248.200 256.000 M166.778 266.300 L 165.400 267.800 166.900 266.422 C 168.296 265.138,168.584 264.800,168.278 264.800 C 168.212 264.800,167.537 265.475,166.778 266.300 M162.378 271.100 L 161.000 272.600 162.500 271.222 C 163.896 269.938,164.184 269.600,163.878 269.600 C 163.812 269.600,163.137 270.275,162.378 271.100 M261.200 270.125 C 261.200 270.194,261.785 270.779,262.500 271.425 L 263.800 272.600 262.625 271.300 C 261.530 270.088,261.200 269.816,261.200 270.125 M158.975 274.900 L 157.800 276.200 159.100 275.025 C 160.312 273.930,160.584 273.600,160.275 273.600 C 160.206 273.600,159.621 274.185,158.975 274.900 M300.785 274.832 L 299.400 276.063 300.688 275.213 C 301.830 274.459,302.693 273.600,302.308 273.600 C 302.232 273.600,301.547 274.154,300.785 274.832 M309.600 280.800 C 309.130 281.460,308.836 282.000,308.946 282.000 C 309.056 282.000,309.530 281.460,310.000 280.800 C 310.470 280.140,310.764 279.600,310.654 279.600 C 310.544 279.600,310.070 280.140,309.600 280.800 M306.974 284.300 C 306.055 285.528,306.017 285.656,306.763 285.004 C 307.631 284.246,308.614 282.800,308.262 282.800 C 308.170 282.800,307.590 283.475,306.974 284.300 M149.375 285.700 L 148.200 287.000 149.500 285.825 C 150.712 284.730,150.984 284.400,150.675 284.400 C 150.606 284.400,150.021 284.985,149.375 285.700 M146.975 288.500 L 145.800 289.800 147.100 288.625 C 148.312 287.530,148.584 287.200,148.275 287.200 C 148.206 287.200,147.621 287.785,146.975 288.500 M132.800 289.089 C 132.800 289.592,133.943 290.590,134.212 290.321 C 134.318 290.215,134.044 289.802,133.602 289.402 C 133.161 289.003,132.800 288.862,132.800 289.089 M138.683 293.951 C 139.605 294.837,140.225 295.087,139.801 294.402 C 139.666 294.183,139.160 293.801,138.678 293.553 L 137.800 293.101 138.683 293.951 M99.200 308.525 C 99.200 308.594,99.785 309.179,100.500 309.825 L 101.800 311.000 100.625 309.700 C 99.530 308.488,99.200 308.216,99.200 308.525 M180.900 347.076 C 181.285 347.176,181.915 347.176,182.300 347.076 C 182.685 346.975,182.370 346.893,181.600 346.893 C 180.830 346.893,180.515 346.975,180.900 347.076 M216.500 347.076 C 216.885 347.176,217.515 347.176,217.900 347.076 C 218.285 346.975,217.970 346.893,217.200 346.893 C 216.430 346.893,216.115 346.975,216.500 347.076 M184.100 347.476 C 184.485 347.576,185.115 347.576,185.500 347.476 C 185.885 347.375,185.570 347.293,184.800 347.293 C 184.030 347.293,183.715 347.375,184.100 347.476 M213.300 347.476 C 213.685 347.576,214.315 347.576,214.700 347.476 C 215.085 347.375,214.770 347.293,214.000 347.293 C 213.230 347.293,212.915 347.375,213.300 347.476 M188.505 347.887 C 189.114 347.979,190.014 347.977,190.505 347.882 C 190.997 347.787,190.500 347.711,189.400 347.714 C 188.300 347.717,187.897 347.795,188.505 347.887 M208.505 347.887 C 209.114 347.979,210.014 347.977,210.505 347.882 C 210.997 347.787,210.500 347.711,209.400 347.714 C 208.300 347.717,207.897 347.795,208.505 347.887 " stroke="none" fill="#5b0404" fill-rule="evenodd"></path><path id="path4" d="M196.482 65.496 C 197.958 65.573,200.478 65.573,202.082 65.497 C 203.687 65.421,202.480 65.358,199.400 65.358 C 196.320 65.357,195.007 65.419,196.482 65.496 M187.505 65.883 C 188.002 65.979,188.722 65.975,189.105 65.875 C 189.487 65.775,189.080 65.696,188.200 65.701 C 187.320 65.705,187.007 65.787,187.505 65.883 M209.905 65.883 C 210.402 65.979,211.122 65.975,211.505 65.875 C 211.887 65.775,211.480 65.696,210.600 65.701 C 209.720 65.705,209.407 65.787,209.905 65.883 M183.105 66.283 C 183.602 66.379,184.322 66.375,184.705 66.275 C 185.087 66.175,184.680 66.096,183.800 66.101 C 182.920 66.105,182.607 66.187,183.105 66.283 M213.900 66.282 C 214.395 66.378,215.205 66.378,215.700 66.282 C 216.195 66.187,215.790 66.109,214.800 66.109 C 213.810 66.109,213.405 66.187,213.900 66.282 M145.600 76.200 C 145.050 76.514,144.780 76.772,145.000 76.772 C 145.220 76.772,145.850 76.514,146.400 76.200 C 146.950 75.886,147.220 75.628,147.000 75.628 C 146.780 75.628,146.150 75.886,145.600 76.200 M105.199 103.300 C 104.610 104.104,104.513 104.384,104.945 104.033 C 105.601 103.500,106.593 102.000,106.289 102.000 C 106.213 102.000,105.722 102.585,105.199 103.300 M88.959 105.300 C 87.254 107.267,86.622 108.125,87.071 107.863 C 87.330 107.712,88.110 106.871,88.804 105.994 C 90.151 104.294,90.262 103.797,88.959 105.300 M80.000 116.800 C 79.530 117.460,79.236 118.000,79.346 118.000 C 79.456 118.000,79.930 117.460,80.400 116.800 C 80.870 116.140,81.164 115.600,81.054 115.600 C 80.944 115.600,80.470 116.140,80.000 116.800 M53.328 193.600 C 53.328 195.030,53.401 195.615,53.489 194.900 C 53.578 194.185,53.578 193.015,53.489 192.300 C 53.401 191.585,53.328 192.170,53.328 193.600 M184.434 200.553 L 183.469 201.800 184.613 200.712 C 185.243 200.114,185.677 199.553,185.579 199.465 C 185.480 199.377,184.965 199.867,184.434 200.553 M53.328 209.600 C 53.328 211.030,53.401 211.615,53.489 210.900 C 53.578 210.185,53.578 209.015,53.489 208.300 C 53.401 207.585,53.328 208.170,53.328 209.600 M205.186 227.100 L 203.000 229.400 205.300 227.214 C 207.437 225.182,207.783 224.800,207.486 224.800 C 207.424 224.800,206.389 225.835,205.186 227.100 M222.800 230.600 C 223.546 231.370,224.247 232.000,224.357 232.000 C 224.467 232.000,223.946 231.370,223.200 230.600 C 222.454 229.830,221.753 229.200,221.643 229.200 C 221.533 229.200,222.054 229.830,222.800 230.600 M189.197 242.700 L 178.600 253.400 189.300 242.803 C 199.243 232.955,200.180 232.000,199.897 232.000 C 199.841 232.000,195.026 236.815,189.197 242.700 M228.200 235.600 C 229.506 236.920,230.665 238.000,230.775 238.000 C 230.885 238.000,229.906 236.920,228.600 235.600 C 227.294 234.280,226.135 233.200,226.025 233.200 C 225.915 233.200,226.894 234.280,228.200 235.600 M238.600 245.600 C 240.350 247.360,241.871 248.800,241.981 248.800 C 242.091 248.800,240.750 247.360,239.000 245.600 C 237.250 243.840,235.729 242.400,235.619 242.400 C 235.509 242.400,236.850 243.840,238.600 245.600 M249.800 257.200 C 250.659 258.080,251.452 258.800,251.562 258.800 C 251.672 258.800,251.059 258.080,250.200 257.200 C 249.341 256.320,248.548 255.600,248.438 255.600 C 248.328 255.600,248.941 256.320,249.800 257.200 M172.378 259.900 L 171.000 261.400 172.500 260.022 C 173.896 258.738,174.184 258.400,173.878 258.400 C 173.812 258.400,173.137 259.075,172.378 259.900 M254.400 262.200 C 255.146 262.970,255.847 263.600,255.957 263.600 C 256.067 263.600,255.546 262.970,254.800 262.200 C 254.054 261.430,253.353 260.800,253.243 260.800 C 253.133 260.800,253.654 261.430,254.400 262.200 M258.000 266.125 C 258.000 266.194,258.585 266.779,259.300 267.425 L 260.600 268.600 259.425 267.300 C 258.330 266.088,258.000 265.816,258.000 266.125 M295.585 278.429 L 294.200 279.658 295.700 278.581 C 297.026 277.630,297.457 277.200,297.085 277.200 C 297.022 277.200,296.347 277.753,295.585 278.429 M311.200 279.200 C 310.730 279.860,310.436 280.400,310.546 280.400 C 310.656 280.400,311.130 279.860,311.600 279.200 C 312.070 278.540,312.364 278.000,312.254 278.000 C 312.144 278.000,311.670 278.540,311.200 279.200 M122.800 280.393 C 123.570 281.089,124.920 282.202,125.800 282.866 L 127.400 284.072 126.000 282.807 C 125.230 282.111,123.880 280.998,123.000 280.334 L 121.400 279.128 122.800 280.393 M286.385 285.629 L 285.000 286.858 286.500 285.781 C 287.826 284.830,288.257 284.400,287.885 284.400 C 287.822 284.400,287.147 284.953,286.385 285.629 M80.000 286.400 C 80.470 287.060,80.944 287.600,81.054 287.600 C 81.164 287.600,80.870 287.060,80.400 286.400 C 79.930 285.740,79.456 285.200,79.346 285.200 C 79.236 285.200,79.530 285.740,80.000 286.400 M278.769 290.099 C 279.676 291.128,281.200 290.848,281.200 289.652 C 281.200 289.529,280.894 289.735,280.520 290.109 C 279.880 290.749,279.780 290.736,278.820 289.894 L 277.800 289.000 278.769 290.099 M300.585 292.445 C 299.493 293.570,298.960 294.262,299.400 293.983 C 300.181 293.486,303.051 290.400,302.731 290.400 C 302.643 290.400,301.677 291.320,300.585 292.445 M138.786 293.485 C 139.784 294.411,140.741 295.176,140.914 295.185 C 141.087 295.193,140.547 294.624,139.714 293.920 C 137.301 291.881,136.813 291.652,138.786 293.485 M297.192 295.410 C 296.424 296.335,296.879 296.429,297.944 295.566 C 298.588 295.044,298.699 294.800,298.293 294.800 C 297.966 294.800,297.470 295.074,297.192 295.410 M294.884 297.842 C 294.461 298.300,294.474 298.400,294.961 298.400 C 295.640 298.400,296.164 297.747,295.707 297.470 C 295.538 297.368,295.168 297.535,294.884 297.842 M91.000 300.000 C 91.859 300.880,92.652 301.600,92.762 301.600 C 92.872 301.600,92.259 300.880,91.400 300.000 C 90.541 299.120,89.748 298.400,89.638 298.400 C 89.528 298.400,90.141 299.120,91.000 300.000 M100.400 309.400 C 101.146 310.170,101.847 310.800,101.957 310.800 C 102.067 310.800,101.546 310.170,100.800 309.400 C 100.054 308.630,99.353 308.000,99.243 308.000 C 99.133 308.000,99.654 308.630,100.400 309.400 M297.800 309.791 C 296.920 310.549,296.315 311.177,296.456 311.185 C 296.597 311.193,297.407 310.574,298.256 309.809 C 300.257 308.007,299.887 307.992,297.800 309.791 M189.300 347.476 C 189.685 347.576,190.315 347.576,190.700 347.476 C 191.085 347.375,190.770 347.293,190.000 347.293 C 189.230 347.293,188.915 347.375,189.300 347.476 M208.100 347.476 C 208.485 347.576,209.115 347.576,209.500 347.476 C 209.885 347.375,209.570 347.293,208.800 347.293 C 208.030 347.293,207.715 347.375,208.100 347.476 " stroke="none" fill="#cc0404" fill-rule="evenodd"></path></g></svg>